<?xml version="1.0" encoding="UTF-8" standalone="no"?>
<svg width="881px" height="539px" viewBox="0 0 881 539" version="1.1" xmlns="http://www.w3.org/2000/svg" xmlns:xlink="http://www.w3.org/1999/xlink" xmlns:sketch="http://www.bohemiancoding.com/sketch/ns">
    <!-- Generator: Sketch 3.3.1 (12005) - http://www.bohemiancoding.com/sketch -->
    <title>Slice 1</title>
    <desc>Created with Sketch.</desc>
    <defs></defs>
    <g id="Page-1" stroke="none" stroke-width="1" fill="none" fill-rule="evenodd" sketch:type="MSPage">
        <g id="Group-Copy-3-+-Line-Copy-7-+-Line-Copy-8" sketch:type="MSLayerGroup" transform="translate(343.000000, 16.000000)">
            <g id="Group-Copy-3" transform="translate(84.433013, 70.250000) rotate(-30.000000) translate(-84.433013, -70.250000) translate(8.933013, 32.750000)" sketch:type="MSShapeGroup">
                <path d="M0.72815534,5.82645043e-13 C0.72815534,41.2202817 34.143796,74.6359223 75.3640777,74.6359223 L75.3640777,74.6359223 C116.584359,74.6359223 150,41.2202817 150,5.82645043e-13" id="Oval-1" stroke="#EFEBB8" stroke-width="13" fill="#F3CBD0"></path>
                <path d="M8.0102486,7.81597009e-13 C8.0102486,37.1984926 38.165585,67.3538291 75.3640777,67.3538291 L75.3640777,67.3538291 C112.56257,67.3538291 142.717907,37.1984926 142.717907,7.81597009e-13" id="Oval-1-Copy" stroke="#F5F5EC" stroke-width="4"></path>
                <path d="M118.145827,27.7692386 L78.808657,3.90321245" id="Line" stroke="#F5F4EC" stroke-width="3" stroke-linecap="square"></path>
                <path d="M75.9067339,49.7666605 L44.0766062,4.63526328" id="Line-Copy-5" stroke="#F5F4EC" stroke-width="3" stroke-linecap="square" transform="translate(60.076606, 27.135263) scale(-1, 1) translate(-60.076606, -27.135263) "></path>
                <path d="M74.3445544,3.63526329 L29.1939203,31.8384581" id="Line-Copy" stroke="#F5F4EC" stroke-width="3" stroke-linecap="square"></path>
                <path d="M74.8621006,1.49885854 L20.105463,11.5801268" id="Line-Copy-2" stroke="#F5F4EC" stroke-width="3" stroke-linecap="square"></path>
                <path d="M134.841979,10.8506537 L78.0766063,1.17116168" id="Line-Copy-3" stroke="#F5F4EC" stroke-width="3" stroke-linecap="square"></path>
                <path d="M84.3874951,60.240383 L76.2105808,2.40321248" id="Line-Copy-4" stroke="#F5F4EC" stroke-width="3" stroke-linecap="square"></path>
            </g>
            <path d="M117.086626,41.5 L71.0866272,63.5" id="Line-Copy-7" stroke="#F5F4EC" stroke-width="3" stroke-linecap="square" sketch:type="MSShapeGroup" transform="translate(93.793314, 52.500000) scale(-1, 1) translate(-93.793314, -52.500000) "></path>
            <path d="M68.2206018,84.5 L79.2206018,39.5" id="Line-Copy-8" stroke="#F5F4EC" stroke-width="3" stroke-linecap="square" sketch:type="MSShapeGroup" transform="translate(73.860301, 62.000000) scale(-1, 1) translate(-73.860301, -62.000000) "></path>
        </g>
        <g id="Group-Copy-3-+-Line-Copy-7-+-Line-Copy-8-Copy-Copy-Copy" sketch:type="MSLayerGroup" transform="translate(444.500000, 480.500000) scale(-1, 1) rotate(17.000000) translate(-444.500000, -480.500000) translate(360.000000, 410.000000)">
            <g id="Group-Copy-3" transform="translate(84.433013, 70.250000) rotate(-30.000000) translate(-84.433013, -70.250000) translate(8.933013, 32.750000)" sketch:type="MSShapeGroup">
                <path d="M0.72815534,5.82645043e-13 C0.72815534,41.2202817 34.143796,74.6359223 75.3640777,74.6359223 L75.3640777,74.6359223 C116.584359,74.6359223 150,41.2202817 150,5.82645043e-13" id="Oval-1" stroke="#EFEBB8" stroke-width="13" fill="#F3CBD0"></path>
                <path d="M8.0102486,7.81597009e-13 C8.0102486,37.1984926 38.165585,67.3538291 75.3640777,67.3538291 L75.3640777,67.3538291 C112.56257,67.3538291 142.717907,37.1984926 142.717907,7.81597009e-13" id="Oval-1-Copy" stroke="#F5F5EC" stroke-width="4"></path>
                <path d="M118.145827,27.7692386 L78.808657,3.90321245" id="Line" stroke="#F5F4EC" stroke-width="3" stroke-linecap="square"></path>
                <path d="M75.9067339,49.7666605 L44.0766062,4.63526328" id="Line-Copy-5" stroke="#F5F4EC" stroke-width="3" stroke-linecap="square" transform="translate(60.076606, 27.135263) scale(-1, 1) translate(-60.076606, -27.135263) "></path>
                <path d="M74.3445544,3.63526329 L29.1939203,31.8384581" id="Line-Copy" stroke="#F5F4EC" stroke-width="3" stroke-linecap="square"></path>
                <path d="M74.8621006,1.49885854 L20.105463,11.5801268" id="Line-Copy-2" stroke="#F5F4EC" stroke-width="3" stroke-linecap="square"></path>
                <path d="M134.841979,10.8506537 L78.0766063,1.17116168" id="Line-Copy-3" stroke="#F5F4EC" stroke-width="3" stroke-linecap="square"></path>
                <path d="M84.3874951,60.240383 L76.2105808,2.40321248" id="Line-Copy-4" stroke="#F5F4EC" stroke-width="3" stroke-linecap="square"></path>
            </g>
            <path d="M117.086626,41.5 L71.0866272,63.5" id="Line-Copy-7" stroke="#F5F4EC" stroke-width="3" stroke-linecap="square" sketch:type="MSShapeGroup" transform="translate(93.793314, 52.500000) scale(-1, 1) translate(-93.793314, -52.500000) "></path>
            <path d="M68.2206018,84.5 L79.2206018,39.5" id="Line-Copy-8" stroke="#F5F4EC" stroke-width="3" stroke-linecap="square" sketch:type="MSShapeGroup" transform="translate(73.860301, 62.000000) scale(-1, 1) translate(-73.860301, -62.000000) "></path>
        </g>
        <g id="Group-Copy-3-+-Line-Copy-7-+-Line-Copy-8-Copy-Copy-Copy-Copy" sketch:type="MSLayerGroup" transform="translate(748.429147, 437.532020) scale(1, -1) rotate(-30.000000) translate(-748.429147, -437.532020) translate(663.929147, 367.032020)">
            <g id="Group-Copy-3" transform="translate(84.433013, 70.250000) rotate(-30.000000) translate(-84.433013, -70.250000) translate(8.933013, 32.750000)" sketch:type="MSShapeGroup">
                <path d="M0.72815534,5.82645043e-13 C0.72815534,41.2202817 34.143796,74.6359223 75.3640777,74.6359223 L75.3640777,74.6359223 C116.584359,74.6359223 150,41.2202817 150,5.82645043e-13" id="Oval-1" stroke="#EFEBB8" stroke-width="13" fill="#F3CBD0"></path>
                <path d="M8.0102486,7.81597009e-13 C8.0102486,37.1984926 38.165585,67.3538291 75.3640777,67.3538291 L75.3640777,67.3538291 C112.56257,67.3538291 142.717907,37.1984926 142.717907,7.81597009e-13" id="Oval-1-Copy" stroke="#F5F5EC" stroke-width="4"></path>
                <path d="M118.145827,27.7692386 L78.808657,3.90321245" id="Line" stroke="#F5F4EC" stroke-width="3" stroke-linecap="square"></path>
                <path d="M75.9067339,49.7666605 L44.0766062,4.63526328" id="Line-Copy-5" stroke="#F5F4EC" stroke-width="3" stroke-linecap="square" transform="translate(60.076606, 27.135263) scale(-1, 1) translate(-60.076606, -27.135263) "></path>
                <path d="M74.3445544,3.63526329 L29.1939203,31.8384581" id="Line-Copy" stroke="#F5F4EC" stroke-width="3" stroke-linecap="square"></path>
                <path d="M74.8621006,1.49885854 L20.105463,11.5801268" id="Line-Copy-2" stroke="#F5F4EC" stroke-width="3" stroke-linecap="square"></path>
                <path d="M134.841979,10.8506537 L78.0766063,1.17116168" id="Line-Copy-3" stroke="#F5F4EC" stroke-width="3" stroke-linecap="square"></path>
                <path d="M84.3874951,60.240383 L76.2105808,2.40321248" id="Line-Copy-4" stroke="#F5F4EC" stroke-width="3" stroke-linecap="square"></path>
            </g>
            <path d="M117.086626,41.5 L71.0866272,63.5" id="Line-Copy-7" stroke="#F5F4EC" stroke-width="3" stroke-linecap="square" sketch:type="MSShapeGroup" transform="translate(93.793314, 52.500000) scale(-1, 1) translate(-93.793314, -52.500000) "></path>
            <path d="M68.2206018,84.5 L79.2206018,39.5" id="Line-Copy-8" stroke="#F5F4EC" stroke-width="3" stroke-linecap="square" sketch:type="MSShapeGroup" transform="translate(73.860301, 62.000000) scale(-1, 1) translate(-73.860301, -62.000000) "></path>
        </g>
        <g id="Group-Copy-3-+-Line-Copy-7-+-Line-Copy-8-Copy-Copy-Copy-Copy-Copy" sketch:type="MSLayerGroup" transform="translate(130.500000, 449.032020) scale(-1, -1) rotate(-15.000000) translate(-130.500000, -449.032020) translate(46.000000, 378.532020)">
            <g id="Group-Copy-3" transform="translate(84.433013, 70.250000) rotate(-30.000000) translate(-84.433013, -70.250000) translate(8.933013, 32.750000)" sketch:type="MSShapeGroup">
                <path d="M0.72815534,5.82645043e-13 C0.72815534,41.2202817 34.143796,74.6359223 75.3640777,74.6359223 L75.3640777,74.6359223 C116.584359,74.6359223 150,41.2202817 150,5.82645043e-13" id="Oval-1" stroke="#EFEBB8" stroke-width="13" fill="#F3CBD0"></path>
                <path d="M8.0102486,7.81597009e-13 C8.0102486,37.1984926 38.165585,67.3538291 75.3640777,67.3538291 L75.3640777,67.3538291 C112.56257,67.3538291 142.717907,37.1984926 142.717907,7.81597009e-13" id="Oval-1-Copy" stroke="#F5F5EC" stroke-width="4"></path>
                <path d="M118.145827,27.7692386 L78.808657,3.90321245" id="Line" stroke="#F5F4EC" stroke-width="3" stroke-linecap="square"></path>
                <path d="M75.9067339,49.7666605 L44.0766062,4.63526328" id="Line-Copy-5" stroke="#F5F4EC" stroke-width="3" stroke-linecap="square" transform="translate(60.076606, 27.135263) scale(-1, 1) translate(-60.076606, -27.135263) "></path>
                <path d="M74.3445544,3.63526329 L29.1939203,31.8384581" id="Line-Copy" stroke="#F5F4EC" stroke-width="3" stroke-linecap="square"></path>
                <path d="M74.8621006,1.49885854 L20.105463,11.5801268" id="Line-Copy-2" stroke="#F5F4EC" stroke-width="3" stroke-linecap="square"></path>
                <path d="M134.841979,10.8506537 L78.0766063,1.17116168" id="Line-Copy-3" stroke="#F5F4EC" stroke-width="3" stroke-linecap="square"></path>
                <path d="M84.3874951,60.240383 L76.2105808,2.40321248" id="Line-Copy-4" stroke="#F5F4EC" stroke-width="3" stroke-linecap="square"></path>
            </g>
            <path d="M117.086626,41.5 L71.0866272,63.5" id="Line-Copy-7" stroke="#F5F4EC" stroke-width="3" stroke-linecap="square" sketch:type="MSShapeGroup" transform="translate(93.793314, 52.500000) scale(-1, 1) translate(-93.793314, -52.500000) "></path>
            <path d="M68.2206018,84.5 L79.2206018,39.5" id="Line-Copy-8" stroke="#F5F4EC" stroke-width="3" stroke-linecap="square" sketch:type="MSShapeGroup" transform="translate(73.860301, 62.000000) scale(-1, 1) translate(-73.860301, -62.000000) "></path>
        </g>
        <g id="Group-Copy-3-+-Line-Copy-7-+-Line-Copy-8-Copy" sketch:type="MSLayerGroup" transform="translate(130.500000, 75.500000) scale(1, -1) translate(-130.500000, -75.500000) translate(46.000000, 5.000000)">
            <g id="Group-Copy-3" transform="translate(84.433013, 70.250000) rotate(-30.000000) translate(-84.433013, -70.250000) translate(8.933013, 32.750000)" sketch:type="MSShapeGroup">
                <path d="M0.72815534,5.82645043e-13 C0.72815534,41.2202817 34.143796,74.6359223 75.3640777,74.6359223 L75.3640777,74.6359223 C116.584359,74.6359223 150,41.2202817 150,5.82645043e-13" id="Oval-1" stroke="#EFEBB8" stroke-width="13" fill="#F3CBD0"></path>
                <path d="M8.0102486,7.81597009e-13 C8.0102486,37.1984926 38.165585,67.3538291 75.3640777,67.3538291 L75.3640777,67.3538291 C112.56257,67.3538291 142.717907,37.1984926 142.717907,7.81597009e-13" id="Oval-1-Copy" stroke="#F5F5EC" stroke-width="4"></path>
                <path d="M118.145827,27.7692386 L78.808657,3.90321245" id="Line" stroke="#F5F4EC" stroke-width="3" stroke-linecap="square"></path>
                <path d="M75.9067339,49.7666605 L44.0766062,4.63526328" id="Line-Copy-5" stroke="#F5F4EC" stroke-width="3" stroke-linecap="square" transform="translate(60.076606, 27.135263) scale(-1, 1) translate(-60.076606, -27.135263) "></path>
                <path d="M74.3445544,3.63526329 L29.1939203,31.8384581" id="Line-Copy" stroke="#F5F4EC" stroke-width="3" stroke-linecap="square"></path>
                <path d="M74.8621006,1.49885854 L20.105463,11.5801268" id="Line-Copy-2" stroke="#F5F4EC" stroke-width="3" stroke-linecap="square"></path>
                <path d="M134.841979,10.8506537 L78.0766063,1.17116168" id="Line-Copy-3" stroke="#F5F4EC" stroke-width="3" stroke-linecap="square"></path>
                <path d="M84.3874951,60.240383 L76.2105808,2.40321248" id="Line-Copy-4" stroke="#F5F4EC" stroke-width="3" stroke-linecap="square"></path>
            </g>
            <path d="M117.086626,41.5 L71.0866272,63.5" id="Line-Copy-7" stroke="#F5F4EC" stroke-width="3" stroke-linecap="square" sketch:type="MSShapeGroup" transform="translate(93.793314, 52.500000) scale(-1, 1) translate(-93.793314, -52.500000) "></path>
            <path d="M68.2206018,84.5 L79.2206018,39.5" id="Line-Copy-8" stroke="#F5F4EC" stroke-width="3" stroke-linecap="square" sketch:type="MSShapeGroup" transform="translate(73.860301, 62.000000) scale(-1, 1) translate(-73.860301, -62.000000) "></path>
        </g>
        <g id="Group-Copy-3-+-Line-Copy-7-+-Line-Copy-8-Copy-Copy" sketch:type="MSLayerGroup" transform="translate(728.500000, 103.500000) scale(-1, 1) rotate(-30.000000) translate(-728.500000, -103.500000) translate(644.000000, 33.000000)">
            <g id="Group-Copy-3" transform="translate(84.433013, 70.250000) rotate(-30.000000) translate(-84.433013, -70.250000) translate(8.933013, 32.750000)" sketch:type="MSShapeGroup">
                <path d="M0.72815534,5.82645043e-13 C0.72815534,41.2202817 34.143796,74.6359223 75.3640777,74.6359223 L75.3640777,74.6359223 C116.584359,74.6359223 150,41.2202817 150,5.82645043e-13" id="Oval-1" stroke="#EFEBB8" stroke-width="13" fill="#F3CBD0"></path>
                <path d="M8.0102486,7.81597009e-13 C8.0102486,37.1984926 38.165585,67.3538291 75.3640777,67.3538291 L75.3640777,67.3538291 C112.56257,67.3538291 142.717907,37.1984926 142.717907,7.81597009e-13" id="Oval-1-Copy" stroke="#F5F5EC" stroke-width="4"></path>
                <path d="M118.145827,27.7692386 L78.808657,3.90321245" id="Line" stroke="#F5F4EC" stroke-width="3" stroke-linecap="square"></path>
                <path d="M75.9067339,49.7666605 L44.0766062,4.63526328" id="Line-Copy-5" stroke="#F5F4EC" stroke-width="3" stroke-linecap="square" transform="translate(60.076606, 27.135263) scale(-1, 1) translate(-60.076606, -27.135263) "></path>
                <path d="M74.3445544,3.63526329 L29.1939203,31.8384581" id="Line-Copy" stroke="#F5F4EC" stroke-width="3" stroke-linecap="square"></path>
                <path d="M74.8621006,1.49885854 L20.105463,11.5801268" id="Line-Copy-2" stroke="#F5F4EC" stroke-width="3" stroke-linecap="square"></path>
                <path d="M134.841979,10.8506537 L78.0766063,1.17116168" id="Line-Copy-3" stroke="#F5F4EC" stroke-width="3" stroke-linecap="square"></path>
                <path d="M84.3874951,60.240383 L76.2105808,2.40321248" id="Line-Copy-4" stroke="#F5F4EC" stroke-width="3" stroke-linecap="square"></path>
            </g>
            <path d="M117.086626,41.5 L71.0866272,63.5" id="Line-Copy-7" stroke="#F5F4EC" stroke-width="3" stroke-linecap="square" sketch:type="MSShapeGroup" transform="translate(93.793314, 52.500000) scale(-1, 1) translate(-93.793314, -52.500000) "></path>
            <path d="M68.2206018,84.5 L79.2206018,39.5" id="Line-Copy-8" stroke="#F5F4EC" stroke-width="3" stroke-linecap="square" sketch:type="MSShapeGroup" transform="translate(73.860301, 62.000000) scale(-1, 1) translate(-73.860301, -62.000000) "></path>
        </g>
    </g>
</svg>