<?xml version="1.0" encoding="UTF-8" standalone="no"?>
<svg width="863px" height="539px" viewBox="0 0 863 539" version="1.1" xmlns="http://www.w3.org/2000/svg" xmlns:xlink="http://www.w3.org/1999/xlink" xmlns:sketch="http://www.bohemiancoding.com/sketch/ns">
    <!-- Generator: Sketch 3.3.1 (12005) - http://www.bohemiancoding.com/sketch -->
    <title>Slice 1</title>
    <desc>Created with Sketch.</desc>
    <defs></defs>
    <g id="Page-1" stroke="none" stroke-width="1" fill="none" fill-rule="evenodd" sketch:type="MSPage">
        <g id="Group" sketch:type="MSLayerGroup" transform="translate(250.000000, 205.000000)">
            <circle id="Oval-1-Copy" stroke="#A79E96" stroke-width="8" fill="#DDE9BD" sketch:type="MSShapeGroup" cx="65" cy="65" r="65"></circle>
            <circle id="Oval-1-Copy-2" fill="#DEF0CC" sketch:type="MSShapeGroup" cx="65.4421769" cy="68.0952381" r="45.9863946"></circle>
            <circle id="Oval-1" opacity="0.470965485" fill="#F5F7EE" sketch:type="MSShapeGroup" cx="65.4421769" cy="68.0952381" r="28.7414966"></circle>
            <path d="M39.6502407,40.3000395 C42.1777367,42.3314189 44.5362535,43.7448948 44.9181353,43.4571262 C45.3000172,43.1693576 44.5913923,40.512599 43.3353774,37.5230898 C42.0793624,34.5335806 39.7208457,33.1201047 38.0674827,34.3660031 C36.4141198,35.6119014 37.1227447,38.26866 39.6502407,40.3000395 L39.6502407,40.3000395 Z" id="Oval-1-Copy-10" stroke="#919191" fill="#635B55" sketch:type="MSShapeGroup"></path>
            <path d="M96.3379206,46.5731817 C94.0136584,48.8342752 92.3232875,51.0029526 92.5623714,51.4170581 C92.8014554,51.8311637 95.5247705,51.4515982 98.6450661,50.5692749 C101.765362,49.6869517 103.455733,47.5182743 102.420615,45.7253984 C101.385498,43.9325226 98.6621827,44.3120881 96.3379206,46.5731817 L96.3379206,46.5731817 Z" id="Oval-1-Copy-17" stroke="#919191" fill="#635B55" sketch:type="MSShapeGroup"></path>
            <path d="M85.2907881,36.9595925 C83.9827903,39.9267259 83.2279065,42.5707126 83.6047079,42.8651022 C83.9815094,43.1594917 86.3643355,41.7873929 88.926899,39.8004337 C91.4894626,37.8134746 92.2443463,35.1694878 90.6129791,33.8949241 C88.9816119,32.6203603 86.5987858,33.9924591 85.2907881,36.9595925 L85.2907881,36.9595925 Z" id="Oval-1-Copy-18" stroke="#919191" fill="#635B55" sketch:type="MSShapeGroup"></path>
            <path d="M71.142638,31.0349464 C70.8719059,34.2662685 71.0189472,37.0119732 71.4710638,37.1676494 C71.9231804,37.3233257 73.7294751,35.2502085 75.5055359,32.5372126 C77.2815967,29.8242167 77.1345554,27.078512 75.1771101,26.4045095 C73.2196647,25.730507 71.41337,27.8036242 71.142638,31.0349464 L71.142638,31.0349464 Z" id="Oval-1-Copy-19" stroke="#919191" fill="#635B55" sketch:type="MSShapeGroup"></path>
            <path d="M58.7397255,32.0200049 C58.8975211,35.258807 58.6547458,37.9977074 58.1974716,38.1375102 C57.7401974,38.2773129 56.0073538,36.1424198 54.3270571,33.369093 C52.6467604,30.5957662 52.8895358,27.8568658 54.8693111,27.2515877 C56.8490864,26.6463097 58.5819299,28.7812027 58.7397255,32.0200049 L58.7397255,32.0200049 Z" id="Oval-1-Copy-20" stroke="#919191" fill="#635B55" sketch:type="MSShapeGroup"></path>
            <path d="M33.2199026,50.3285707 C35.5441647,52.5896643 37.2345356,54.7583417 36.9954517,55.1724472 C36.7563678,55.5865527 34.0330526,55.2069872 30.912757,54.324664 C27.7924615,53.4423407 26.1020906,51.2736634 27.1372079,49.4807875 C28.1723253,47.6879117 30.8956404,48.0674771 33.2199026,50.3285707 L33.2199026,50.3285707 Z" id="Oval-1-Copy-11" stroke="#919191" fill="#635B55" sketch:type="MSShapeGroup"></path>
            <path d="M29.6561219,70.3673329 C32.6135534,69.0375444 34.9437139,67.5777952 34.8606809,67.1068918 C34.7776479,66.6359883 32.0887497,66.0612346 28.8548587,65.8231433 C25.6209676,65.585052 23.2908072,67.0448012 23.6502997,69.0835844 C24.0097922,71.1223676 26.6986904,71.6971214 29.6561219,70.3673329 L29.6561219,70.3673329 Z" id="Oval-1-Copy-12" stroke="#919191" fill="#635B55" sketch:type="MSShapeGroup"></path>
            <path d="M33.9436893,85.9170968 C36.1876245,83.5762651 37.80128,81.3499157 37.5478896,80.9444064 C37.2944992,80.538897 34.5860897,81.0132736 31.4984876,82.0039561 C28.4108855,82.9946386 26.79723,85.220988 27.8942873,86.9766466 C28.9913445,88.7323052 31.6997541,88.2579286 33.9436893,85.9170968 L33.9436893,85.9170968 Z" id="Oval-1-Copy-13" stroke="#919191" fill="#635B55" sketch:type="MSShapeGroup"></path>
            <path d="M57.7194746,104.078784 C57.8207212,100.837721 57.5301824,98.1034747 57.070538,97.9716738 C56.6108935,97.8398729 54.9155729,100.004683 53.2839333,102.806913 C51.6522938,105.609142 51.9428326,108.343389 53.9328699,108.914023 C55.9229072,109.484657 57.6182279,107.319847 57.7194746,104.078784 L57.7194746,104.078784 Z" id="Oval-1-Copy-14" stroke="#919191" fill="#635B55" sketch:type="MSShapeGroup"></path>
            <path d="M43.1530862,97.8149784 C44.461084,94.8478451 45.2159678,92.2038583 44.8391663,91.9094688 C44.4623649,91.6150792 42.0795388,92.987178 39.5169753,94.9741372 C36.9544117,96.9610964 36.1995279,99.6050831 37.8308951,100.879647 C39.4622623,102.154211 41.8450885,100.782112 43.1530862,97.8149784 L43.1530862,97.8149784 Z" id="Oval-1-Copy-15" stroke="#919191" fill="#635B55" sketch:type="MSShapeGroup"></path>
            <path d="M84.4560383,99.3060857 C83.573715,96.1857902 83.1941495,93.462475 83.6082551,93.2233911 C84.0223606,92.9843072 86.191038,94.6746781 88.4521315,96.9989402 C90.7132251,99.3232023 91.0927906,102.046517 89.2999148,103.081635 C87.5070389,104.116752 85.3383615,102.426381 84.4560383,99.3060857 L84.4560383,99.3060857 Z" id="Oval-1-Copy-21" stroke="#919191" fill="#635B55" sketch:type="MSShapeGroup"></path>
            <path d="M101.792515,78.410937 C98.6950676,77.4514808 96.2043772,76.2865875 96.2294026,75.8090749 C96.2544279,75.3315623 98.8532386,74.4333985 102.034009,73.8029697 C105.214779,73.1725409 107.705469,74.3374343 107.597121,76.4048318 C107.488774,78.4722293 104.889963,79.3703932 101.792515,78.410937 L101.792515,78.410937 Z" id="Oval-1-Copy-22" stroke="#919191" fill="#635B55" sketch:type="MSShapeGroup"></path>
            <path d="M74.0171313,103.847994 C73.166359,100.718949 72.0890991,98.1891215 71.611004,98.1974667 C71.132909,98.2058118 70.1445951,100.771694 69.4035431,103.928525 C68.6624911,107.085356 69.739751,109.615183 71.8096704,109.579052 C73.8795898,109.542922 74.8679037,106.97704 74.0171313,103.847994 L74.0171313,103.847994 Z" id="Oval-1-Copy-23" stroke="#919191" fill="#635B55" sketch:type="MSShapeGroup"></path>
            <path d="M103.012998,59.3241286 C100.239671,61.0044253 98.104778,62.7372689 98.2445807,63.1945431 C98.3843835,63.6518173 101.123284,63.8945927 104.362086,63.7367971 C107.600888,63.5790015 109.735781,61.8461579 109.130503,59.8663826 C108.525225,57.8866073 105.786325,57.6438319 103.012998,59.3241286 L103.012998,59.3241286 Z" id="Oval-1-Copy-24" stroke="#919191" fill="#635B55" sketch:type="MSShapeGroup"></path>
            <path d="M95.8041539,90.7345078 C94.2425308,87.8926648 93.2600809,85.3245317 93.6097908,84.998422 C93.9595006,84.6723123 96.4528456,85.8315128 99.1788327,87.5875689 C101.90482,89.3436249 102.88727,91.9117581 101.373196,93.3236547 C99.8591221,94.7355514 97.3657771,93.5763508 95.8041539,90.7345078 L95.8041539,90.7345078 Z" id="Oval-1-Copy-25" stroke="#919191" fill="#635B55" sketch:type="MSShapeGroup"></path>
        </g>
        <g id="Group-Copy" sketch:type="MSLayerGroup" transform="translate(701.000000, 205.000000)">
            <circle id="Oval-1-Copy" stroke="#A79E96" stroke-width="8" fill="#DDE9BD" sketch:type="MSShapeGroup" cx="65" cy="65" r="65"></circle>
            <circle id="Oval-1-Copy-2" fill="#DEF0CC" sketch:type="MSShapeGroup" cx="65.4421769" cy="68.0952381" r="45.9863946"></circle>
            <circle id="Oval-1" opacity="0.470965485" fill="#F5F7EE" sketch:type="MSShapeGroup" cx="65.4421769" cy="68.0952381" r="28.7414966"></circle>
            <path d="M39.6502407,40.3000395 C42.1777367,42.3314189 44.5362535,43.7448948 44.9181353,43.4571262 C45.3000172,43.1693576 44.5913923,40.512599 43.3353774,37.5230898 C42.0793624,34.5335806 39.7208457,33.1201047 38.0674827,34.3660031 C36.4141198,35.6119014 37.1227447,38.26866 39.6502407,40.3000395 L39.6502407,40.3000395 Z" id="Oval-1-Copy-10" stroke="#919191" fill="#635B55" sketch:type="MSShapeGroup"></path>
            <path d="M96.3379206,46.5731817 C94.0136584,48.8342752 92.3232875,51.0029526 92.5623714,51.4170581 C92.8014554,51.8311637 95.5247705,51.4515982 98.6450661,50.5692749 C101.765362,49.6869517 103.455733,47.5182743 102.420615,45.7253984 C101.385498,43.9325226 98.6621827,44.3120881 96.3379206,46.5731817 L96.3379206,46.5731817 Z" id="Oval-1-Copy-17" stroke="#919191" fill="#635B55" sketch:type="MSShapeGroup"></path>
            <path d="M85.2907881,36.9595925 C83.9827903,39.9267259 83.2279065,42.5707126 83.6047079,42.8651022 C83.9815094,43.1594917 86.3643355,41.7873929 88.926899,39.8004337 C91.4894626,37.8134746 92.2443463,35.1694878 90.6129791,33.8949241 C88.9816119,32.6203603 86.5987858,33.9924591 85.2907881,36.9595925 L85.2907881,36.9595925 Z" id="Oval-1-Copy-18" stroke="#919191" fill="#635B55" sketch:type="MSShapeGroup"></path>
            <path d="M71.142638,31.0349464 C70.8719059,34.2662685 71.0189472,37.0119732 71.4710638,37.1676494 C71.9231804,37.3233257 73.7294751,35.2502085 75.5055359,32.5372126 C77.2815967,29.8242167 77.1345554,27.078512 75.1771101,26.4045095 C73.2196647,25.730507 71.41337,27.8036242 71.142638,31.0349464 L71.142638,31.0349464 Z" id="Oval-1-Copy-19" stroke="#919191" fill="#635B55" sketch:type="MSShapeGroup"></path>
            <path d="M58.7397255,32.0200049 C58.8975211,35.258807 58.6547458,37.9977074 58.1974716,38.1375102 C57.7401974,38.2773129 56.0073538,36.1424198 54.3270571,33.369093 C52.6467604,30.5957662 52.8895358,27.8568658 54.8693111,27.2515877 C56.8490864,26.6463097 58.5819299,28.7812027 58.7397255,32.0200049 L58.7397255,32.0200049 Z" id="Oval-1-Copy-20" stroke="#919191" fill="#635B55" sketch:type="MSShapeGroup"></path>
            <path d="M33.2199026,50.3285707 C35.5441647,52.5896643 37.2345356,54.7583417 36.9954517,55.1724472 C36.7563678,55.5865527 34.0330526,55.2069872 30.912757,54.324664 C27.7924615,53.4423407 26.1020906,51.2736634 27.1372079,49.4807875 C28.1723253,47.6879117 30.8956404,48.0674771 33.2199026,50.3285707 L33.2199026,50.3285707 Z" id="Oval-1-Copy-11" stroke="#919191" fill="#635B55" sketch:type="MSShapeGroup"></path>
            <path d="M29.6561219,70.3673329 C32.6135534,69.0375444 34.9437139,67.5777952 34.8606809,67.1068918 C34.7776479,66.6359883 32.0887497,66.0612346 28.8548587,65.8231433 C25.6209676,65.585052 23.2908072,67.0448012 23.6502997,69.0835844 C24.0097922,71.1223676 26.6986904,71.6971214 29.6561219,70.3673329 L29.6561219,70.3673329 Z" id="Oval-1-Copy-12" stroke="#919191" fill="#635B55" sketch:type="MSShapeGroup"></path>
            <path d="M33.9436893,85.9170968 C36.1876245,83.5762651 37.80128,81.3499157 37.5478896,80.9444064 C37.2944992,80.538897 34.5860897,81.0132736 31.4984876,82.0039561 C28.4108855,82.9946386 26.79723,85.220988 27.8942873,86.9766466 C28.9913445,88.7323052 31.6997541,88.2579286 33.9436893,85.9170968 L33.9436893,85.9170968 Z" id="Oval-1-Copy-13" stroke="#919191" fill="#635B55" sketch:type="MSShapeGroup"></path>
            <path d="M57.7194746,104.078784 C57.8207212,100.837721 57.5301824,98.1034747 57.070538,97.9716738 C56.6108935,97.8398729 54.9155729,100.004683 53.2839333,102.806913 C51.6522938,105.609142 51.9428326,108.343389 53.9328699,108.914023 C55.9229072,109.484657 57.6182279,107.319847 57.7194746,104.078784 L57.7194746,104.078784 Z" id="Oval-1-Copy-14" stroke="#919191" fill="#635B55" sketch:type="MSShapeGroup"></path>
            <path d="M43.1530862,97.8149784 C44.461084,94.8478451 45.2159678,92.2038583 44.8391663,91.9094688 C44.4623649,91.6150792 42.0795388,92.987178 39.5169753,94.9741372 C36.9544117,96.9610964 36.1995279,99.6050831 37.8308951,100.879647 C39.4622623,102.154211 41.8450885,100.782112 43.1530862,97.8149784 L43.1530862,97.8149784 Z" id="Oval-1-Copy-15" stroke="#919191" fill="#635B55" sketch:type="MSShapeGroup"></path>
            <path d="M84.4560383,99.3060857 C83.573715,96.1857902 83.1941495,93.462475 83.6082551,93.2233911 C84.0223606,92.9843072 86.191038,94.6746781 88.4521315,96.9989402 C90.7132251,99.3232023 91.0927906,102.046517 89.2999148,103.081635 C87.5070389,104.116752 85.3383615,102.426381 84.4560383,99.3060857 L84.4560383,99.3060857 Z" id="Oval-1-Copy-21" stroke="#919191" fill="#635B55" sketch:type="MSShapeGroup"></path>
            <path d="M101.792515,78.410937 C98.6950676,77.4514808 96.2043772,76.2865875 96.2294026,75.8090749 C96.2544279,75.3315623 98.8532386,74.4333985 102.034009,73.8029697 C105.214779,73.1725409 107.705469,74.3374343 107.597121,76.4048318 C107.488774,78.4722293 104.889963,79.3703932 101.792515,78.410937 L101.792515,78.410937 Z" id="Oval-1-Copy-22" stroke="#919191" fill="#635B55" sketch:type="MSShapeGroup"></path>
            <path d="M74.0171313,103.847994 C73.166359,100.718949 72.0890991,98.1891215 71.611004,98.1974667 C71.132909,98.2058118 70.1445951,100.771694 69.4035431,103.928525 C68.6624911,107.085356 69.739751,109.615183 71.8096704,109.579052 C73.8795898,109.542922 74.8679037,106.97704 74.0171313,103.847994 L74.0171313,103.847994 Z" id="Oval-1-Copy-23" stroke="#919191" fill="#635B55" sketch:type="MSShapeGroup"></path>
            <path d="M103.012998,59.3241286 C100.239671,61.0044253 98.104778,62.7372689 98.2445807,63.1945431 C98.3843835,63.6518173 101.123284,63.8945927 104.362086,63.7367971 C107.600888,63.5790015 109.735781,61.8461579 109.130503,59.8663826 C108.525225,57.8866073 105.786325,57.6438319 103.012998,59.3241286 L103.012998,59.3241286 Z" id="Oval-1-Copy-24" stroke="#919191" fill="#635B55" sketch:type="MSShapeGroup"></path>
            <path d="M95.8041539,90.7345078 C94.2425308,87.8926648 93.2600809,85.3245317 93.6097908,84.998422 C93.9595006,84.6723123 96.4528456,85.8315128 99.1788327,87.5875689 C101.90482,89.3436249 102.88727,91.9117581 101.373196,93.3236547 C99.8591221,94.7355514 97.3657771,93.5763508 95.8041539,90.7345078 L95.8041539,90.7345078 Z" id="Oval-1-Copy-25" stroke="#919191" fill="#635B55" sketch:type="MSShapeGroup"></path>
        </g>
        <g id="Group-Copy-4" sketch:type="MSLayerGroup" transform="translate(34.000000, 49.000000)">
            <circle id="Oval-1-Copy" stroke="#A79E96" stroke-width="8" fill="#DDE9BD" sketch:type="MSShapeGroup" cx="65" cy="65" r="65"></circle>
            <circle id="Oval-1-Copy-2" fill="#DEF0CC" sketch:type="MSShapeGroup" cx="65.4421769" cy="68.0952381" r="45.9863946"></circle>
            <circle id="Oval-1" opacity="0.470965485" fill="#F5F7EE" sketch:type="MSShapeGroup" cx="65.4421769" cy="68.0952381" r="28.7414966"></circle>
            <path d="M39.6502407,40.3000395 C42.1777367,42.3314189 44.5362535,43.7448948 44.9181353,43.4571262 C45.3000172,43.1693576 44.5913923,40.512599 43.3353774,37.5230898 C42.0793624,34.5335806 39.7208457,33.1201047 38.0674827,34.3660031 C36.4141198,35.6119014 37.1227447,38.26866 39.6502407,40.3000395 L39.6502407,40.3000395 Z" id="Oval-1-Copy-10" stroke="#919191" fill="#635B55" sketch:type="MSShapeGroup"></path>
            <path d="M96.3379206,46.5731817 C94.0136584,48.8342752 92.3232875,51.0029526 92.5623714,51.4170581 C92.8014554,51.8311637 95.5247705,51.4515982 98.6450661,50.5692749 C101.765362,49.6869517 103.455733,47.5182743 102.420615,45.7253984 C101.385498,43.9325226 98.6621827,44.3120881 96.3379206,46.5731817 L96.3379206,46.5731817 Z" id="Oval-1-Copy-17" stroke="#919191" fill="#635B55" sketch:type="MSShapeGroup"></path>
            <path d="M85.2907881,36.9595925 C83.9827903,39.9267259 83.2279065,42.5707126 83.6047079,42.8651022 C83.9815094,43.1594917 86.3643355,41.7873929 88.926899,39.8004337 C91.4894626,37.8134746 92.2443463,35.1694878 90.6129791,33.8949241 C88.9816119,32.6203603 86.5987858,33.9924591 85.2907881,36.9595925 L85.2907881,36.9595925 Z" id="Oval-1-Copy-18" stroke="#919191" fill="#635B55" sketch:type="MSShapeGroup"></path>
            <path d="M71.142638,31.0349464 C70.8719059,34.2662685 71.0189472,37.0119732 71.4710638,37.1676494 C71.9231804,37.3233257 73.7294751,35.2502085 75.5055359,32.5372126 C77.2815967,29.8242167 77.1345554,27.078512 75.1771101,26.4045095 C73.2196647,25.730507 71.41337,27.8036242 71.142638,31.0349464 L71.142638,31.0349464 Z" id="Oval-1-Copy-19" stroke="#919191" fill="#635B55" sketch:type="MSShapeGroup"></path>
            <path d="M58.7397255,32.0200049 C58.8975211,35.258807 58.6547458,37.9977074 58.1974716,38.1375102 C57.7401974,38.2773129 56.0073538,36.1424198 54.3270571,33.369093 C52.6467604,30.5957662 52.8895358,27.8568658 54.8693111,27.2515877 C56.8490864,26.6463097 58.5819299,28.7812027 58.7397255,32.0200049 L58.7397255,32.0200049 Z" id="Oval-1-Copy-20" stroke="#919191" fill="#635B55" sketch:type="MSShapeGroup"></path>
            <path d="M33.2199026,50.3285707 C35.5441647,52.5896643 37.2345356,54.7583417 36.9954517,55.1724472 C36.7563678,55.5865527 34.0330526,55.2069872 30.912757,54.324664 C27.7924615,53.4423407 26.1020906,51.2736634 27.1372079,49.4807875 C28.1723253,47.6879117 30.8956404,48.0674771 33.2199026,50.3285707 L33.2199026,50.3285707 Z" id="Oval-1-Copy-11" stroke="#919191" fill="#635B55" sketch:type="MSShapeGroup"></path>
            <path d="M29.6561219,70.3673329 C32.6135534,69.0375444 34.9437139,67.5777952 34.8606809,67.1068918 C34.7776479,66.6359883 32.0887497,66.0612346 28.8548587,65.8231433 C25.6209676,65.585052 23.2908072,67.0448012 23.6502997,69.0835844 C24.0097922,71.1223676 26.6986904,71.6971214 29.6561219,70.3673329 L29.6561219,70.3673329 Z" id="Oval-1-Copy-12" stroke="#919191" fill="#635B55" sketch:type="MSShapeGroup"></path>
            <path d="M33.9436893,85.9170968 C36.1876245,83.5762651 37.80128,81.3499157 37.5478896,80.9444064 C37.2944992,80.538897 34.5860897,81.0132736 31.4984876,82.0039561 C28.4108855,82.9946386 26.79723,85.220988 27.8942873,86.9766466 C28.9913445,88.7323052 31.6997541,88.2579286 33.9436893,85.9170968 L33.9436893,85.9170968 Z" id="Oval-1-Copy-13" stroke="#919191" fill="#635B55" sketch:type="MSShapeGroup"></path>
            <path d="M57.7194746,104.078784 C57.8207212,100.837721 57.5301824,98.1034747 57.070538,97.9716738 C56.6108935,97.8398729 54.9155729,100.004683 53.2839333,102.806913 C51.6522938,105.609142 51.9428326,108.343389 53.9328699,108.914023 C55.9229072,109.484657 57.6182279,107.319847 57.7194746,104.078784 L57.7194746,104.078784 Z" id="Oval-1-Copy-14" stroke="#919191" fill="#635B55" sketch:type="MSShapeGroup"></path>
            <path d="M43.1530862,97.8149784 C44.461084,94.8478451 45.2159678,92.2038583 44.8391663,91.9094688 C44.4623649,91.6150792 42.0795388,92.987178 39.5169753,94.9741372 C36.9544117,96.9610964 36.1995279,99.6050831 37.8308951,100.879647 C39.4622623,102.154211 41.8450885,100.782112 43.1530862,97.8149784 L43.1530862,97.8149784 Z" id="Oval-1-Copy-15" stroke="#919191" fill="#635B55" sketch:type="MSShapeGroup"></path>
            <path d="M84.4560383,99.3060857 C83.573715,96.1857902 83.1941495,93.462475 83.6082551,93.2233911 C84.0223606,92.9843072 86.191038,94.6746781 88.4521315,96.9989402 C90.7132251,99.3232023 91.0927906,102.046517 89.2999148,103.081635 C87.5070389,104.116752 85.3383615,102.426381 84.4560383,99.3060857 L84.4560383,99.3060857 Z" id="Oval-1-Copy-21" stroke="#919191" fill="#635B55" sketch:type="MSShapeGroup"></path>
            <path d="M101.792515,78.410937 C98.6950676,77.4514808 96.2043772,76.2865875 96.2294026,75.8090749 C96.2544279,75.3315623 98.8532386,74.4333985 102.034009,73.8029697 C105.214779,73.1725409 107.705469,74.3374343 107.597121,76.4048318 C107.488774,78.4722293 104.889963,79.3703932 101.792515,78.410937 L101.792515,78.410937 Z" id="Oval-1-Copy-22" stroke="#919191" fill="#635B55" sketch:type="MSShapeGroup"></path>
            <path d="M74.0171313,103.847994 C73.166359,100.718949 72.0890991,98.1891215 71.611004,98.1974667 C71.132909,98.2058118 70.1445951,100.771694 69.4035431,103.928525 C68.6624911,107.085356 69.739751,109.615183 71.8096704,109.579052 C73.8795898,109.542922 74.8679037,106.97704 74.0171313,103.847994 L74.0171313,103.847994 Z" id="Oval-1-Copy-23" stroke="#919191" fill="#635B55" sketch:type="MSShapeGroup"></path>
            <path d="M103.012998,59.3241286 C100.239671,61.0044253 98.104778,62.7372689 98.2445807,63.1945431 C98.3843835,63.6518173 101.123284,63.8945927 104.362086,63.7367971 C107.600888,63.5790015 109.735781,61.8461579 109.130503,59.8663826 C108.525225,57.8866073 105.786325,57.6438319 103.012998,59.3241286 L103.012998,59.3241286 Z" id="Oval-1-Copy-24" stroke="#919191" fill="#635B55" sketch:type="MSShapeGroup"></path>
            <path d="M95.8041539,90.7345078 C94.2425308,87.8926648 93.2600809,85.3245317 93.6097908,84.998422 C93.9595006,84.6723123 96.4528456,85.8315128 99.1788327,87.5875689 C101.90482,89.3436249 102.88727,91.9117581 101.373196,93.3236547 C99.8591221,94.7355514 97.3657771,93.5763508 95.8041539,90.7345078 L95.8041539,90.7345078 Z" id="Oval-1-Copy-25" stroke="#919191" fill="#635B55" sketch:type="MSShapeGroup"></path>
        </g>
        <g id="Group-Copy-3" sketch:type="MSLayerGroup" transform="translate(34.000000, 394.000000)">
            <circle id="Oval-1-Copy" stroke="#A79E96" stroke-width="8" fill="#DDE9BD" sketch:type="MSShapeGroup" cx="65" cy="65" r="65"></circle>
            <circle id="Oval-1-Copy-2" fill="#DEF0CC" sketch:type="MSShapeGroup" cx="65.4421769" cy="68.0952381" r="45.9863946"></circle>
            <circle id="Oval-1" opacity="0.470965485" fill="#F5F7EE" sketch:type="MSShapeGroup" cx="65.4421769" cy="68.0952381" r="28.7414966"></circle>
            <path d="M39.6502407,40.3000395 C42.1777367,42.3314189 44.5362535,43.7448948 44.9181353,43.4571262 C45.3000172,43.1693576 44.5913923,40.512599 43.3353774,37.5230898 C42.0793624,34.5335806 39.7208457,33.1201047 38.0674827,34.3660031 C36.4141198,35.6119014 37.1227447,38.26866 39.6502407,40.3000395 L39.6502407,40.3000395 Z" id="Oval-1-Copy-10" stroke="#919191" fill="#635B55" sketch:type="MSShapeGroup"></path>
            <path d="M96.3379206,46.5731817 C94.0136584,48.8342752 92.3232875,51.0029526 92.5623714,51.4170581 C92.8014554,51.8311637 95.5247705,51.4515982 98.6450661,50.5692749 C101.765362,49.6869517 103.455733,47.5182743 102.420615,45.7253984 C101.385498,43.9325226 98.6621827,44.3120881 96.3379206,46.5731817 L96.3379206,46.5731817 Z" id="Oval-1-Copy-17" stroke="#919191" fill="#635B55" sketch:type="MSShapeGroup"></path>
            <path d="M85.2907881,36.9595925 C83.9827903,39.9267259 83.2279065,42.5707126 83.6047079,42.8651022 C83.9815094,43.1594917 86.3643355,41.7873929 88.926899,39.8004337 C91.4894626,37.8134746 92.2443463,35.1694878 90.6129791,33.8949241 C88.9816119,32.6203603 86.5987858,33.9924591 85.2907881,36.9595925 L85.2907881,36.9595925 Z" id="Oval-1-Copy-18" stroke="#919191" fill="#635B55" sketch:type="MSShapeGroup"></path>
            <path d="M71.142638,31.0349464 C70.8719059,34.2662685 71.0189472,37.0119732 71.4710638,37.1676494 C71.9231804,37.3233257 73.7294751,35.2502085 75.5055359,32.5372126 C77.2815967,29.8242167 77.1345554,27.078512 75.1771101,26.4045095 C73.2196647,25.730507 71.41337,27.8036242 71.142638,31.0349464 L71.142638,31.0349464 Z" id="Oval-1-Copy-19" stroke="#919191" fill="#635B55" sketch:type="MSShapeGroup"></path>
            <path d="M58.7397255,32.0200049 C58.8975211,35.258807 58.6547458,37.9977074 58.1974716,38.1375102 C57.7401974,38.2773129 56.0073538,36.1424198 54.3270571,33.369093 C52.6467604,30.5957662 52.8895358,27.8568658 54.8693111,27.2515877 C56.8490864,26.6463097 58.5819299,28.7812027 58.7397255,32.0200049 L58.7397255,32.0200049 Z" id="Oval-1-Copy-20" stroke="#919191" fill="#635B55" sketch:type="MSShapeGroup"></path>
            <path d="M33.2199026,50.3285707 C35.5441647,52.5896643 37.2345356,54.7583417 36.9954517,55.1724472 C36.7563678,55.5865527 34.0330526,55.2069872 30.912757,54.324664 C27.7924615,53.4423407 26.1020906,51.2736634 27.1372079,49.4807875 C28.1723253,47.6879117 30.8956404,48.0674771 33.2199026,50.3285707 L33.2199026,50.3285707 Z" id="Oval-1-Copy-11" stroke="#919191" fill="#635B55" sketch:type="MSShapeGroup"></path>
            <path d="M29.6561219,70.3673329 C32.6135534,69.0375444 34.9437139,67.5777952 34.8606809,67.1068918 C34.7776479,66.6359883 32.0887497,66.0612346 28.8548587,65.8231433 C25.6209676,65.585052 23.2908072,67.0448012 23.6502997,69.0835844 C24.0097922,71.1223676 26.6986904,71.6971214 29.6561219,70.3673329 L29.6561219,70.3673329 Z" id="Oval-1-Copy-12" stroke="#919191" fill="#635B55" sketch:type="MSShapeGroup"></path>
            <path d="M33.9436893,85.9170968 C36.1876245,83.5762651 37.80128,81.3499157 37.5478896,80.9444064 C37.2944992,80.538897 34.5860897,81.0132736 31.4984876,82.0039561 C28.4108855,82.9946386 26.79723,85.220988 27.8942873,86.9766466 C28.9913445,88.7323052 31.6997541,88.2579286 33.9436893,85.9170968 L33.9436893,85.9170968 Z" id="Oval-1-Copy-13" stroke="#919191" fill="#635B55" sketch:type="MSShapeGroup"></path>
            <path d="M57.7194746,104.078784 C57.8207212,100.837721 57.5301824,98.1034747 57.070538,97.9716738 C56.6108935,97.8398729 54.9155729,100.004683 53.2839333,102.806913 C51.6522938,105.609142 51.9428326,108.343389 53.9328699,108.914023 C55.9229072,109.484657 57.6182279,107.319847 57.7194746,104.078784 L57.7194746,104.078784 Z" id="Oval-1-Copy-14" stroke="#919191" fill="#635B55" sketch:type="MSShapeGroup"></path>
            <path d="M43.1530862,97.8149784 C44.461084,94.8478451 45.2159678,92.2038583 44.8391663,91.9094688 C44.4623649,91.6150792 42.0795388,92.987178 39.5169753,94.9741372 C36.9544117,96.9610964 36.1995279,99.6050831 37.8308951,100.879647 C39.4622623,102.154211 41.8450885,100.782112 43.1530862,97.8149784 L43.1530862,97.8149784 Z" id="Oval-1-Copy-15" stroke="#919191" fill="#635B55" sketch:type="MSShapeGroup"></path>
            <path d="M84.4560383,99.3060857 C83.573715,96.1857902 83.1941495,93.462475 83.6082551,93.2233911 C84.0223606,92.9843072 86.191038,94.6746781 88.4521315,96.9989402 C90.7132251,99.3232023 91.0927906,102.046517 89.2999148,103.081635 C87.5070389,104.116752 85.3383615,102.426381 84.4560383,99.3060857 L84.4560383,99.3060857 Z" id="Oval-1-Copy-21" stroke="#919191" fill="#635B55" sketch:type="MSShapeGroup"></path>
            <path d="M101.792515,78.410937 C98.6950676,77.4514808 96.2043772,76.2865875 96.2294026,75.8090749 C96.2544279,75.3315623 98.8532386,74.4333985 102.034009,73.8029697 C105.214779,73.1725409 107.705469,74.3374343 107.597121,76.4048318 C107.488774,78.4722293 104.889963,79.3703932 101.792515,78.410937 L101.792515,78.410937 Z" id="Oval-1-Copy-22" stroke="#919191" fill="#635B55" sketch:type="MSShapeGroup"></path>
            <path d="M74.0171313,103.847994 C73.166359,100.718949 72.0890991,98.1891215 71.611004,98.1974667 C71.132909,98.2058118 70.1445951,100.771694 69.4035431,103.928525 C68.6624911,107.085356 69.739751,109.615183 71.8096704,109.579052 C73.8795898,109.542922 74.8679037,106.97704 74.0171313,103.847994 L74.0171313,103.847994 Z" id="Oval-1-Copy-23" stroke="#919191" fill="#635B55" sketch:type="MSShapeGroup"></path>
            <path d="M103.012998,59.3241286 C100.239671,61.0044253 98.104778,62.7372689 98.2445807,63.1945431 C98.3843835,63.6518173 101.123284,63.8945927 104.362086,63.7367971 C107.600888,63.5790015 109.735781,61.8461579 109.130503,59.8663826 C108.525225,57.8866073 105.786325,57.6438319 103.012998,59.3241286 L103.012998,59.3241286 Z" id="Oval-1-Copy-24" stroke="#919191" fill="#635B55" sketch:type="MSShapeGroup"></path>
            <path d="M95.8041539,90.7345078 C94.2425308,87.8926648 93.2600809,85.3245317 93.6097908,84.998422 C93.9595006,84.6723123 96.4528456,85.8315128 99.1788327,87.5875689 C101.90482,89.3436249 102.88727,91.9117581 101.373196,93.3236547 C99.8591221,94.7355514 97.3657771,93.5763508 95.8041539,90.7345078 L95.8041539,90.7345078 Z" id="Oval-1-Copy-25" stroke="#919191" fill="#635B55" sketch:type="MSShapeGroup"></path>
        </g>
        <g id="Group-Copy-5" sketch:type="MSLayerGroup" transform="translate(487.000000, 394.000000)">
            <circle id="Oval-1-Copy" stroke="#A79E96" stroke-width="8" fill="#DDE9BD" sketch:type="MSShapeGroup" cx="65" cy="65" r="65"></circle>
            <circle id="Oval-1-Copy-2" fill="#DEF0CC" sketch:type="MSShapeGroup" cx="65.4421769" cy="68.0952381" r="45.9863946"></circle>
            <circle id="Oval-1" opacity="0.470965485" fill="#F5F7EE" sketch:type="MSShapeGroup" cx="65.4421769" cy="68.0952381" r="28.7414966"></circle>
            <path d="M39.6502407,40.3000395 C42.1777367,42.3314189 44.5362535,43.7448948 44.9181353,43.4571262 C45.3000172,43.1693576 44.5913923,40.512599 43.3353774,37.5230898 C42.0793624,34.5335806 39.7208457,33.1201047 38.0674827,34.3660031 C36.4141198,35.6119014 37.1227447,38.26866 39.6502407,40.3000395 L39.6502407,40.3000395 Z" id="Oval-1-Copy-10" stroke="#919191" fill="#635B55" sketch:type="MSShapeGroup"></path>
            <path d="M96.3379206,46.5731817 C94.0136584,48.8342752 92.3232875,51.0029526 92.5623714,51.4170581 C92.8014554,51.8311637 95.5247705,51.4515982 98.6450661,50.5692749 C101.765362,49.6869517 103.455733,47.5182743 102.420615,45.7253984 C101.385498,43.9325226 98.6621827,44.3120881 96.3379206,46.5731817 L96.3379206,46.5731817 Z" id="Oval-1-Copy-17" stroke="#919191" fill="#635B55" sketch:type="MSShapeGroup"></path>
            <path d="M85.2907881,36.9595925 C83.9827903,39.9267259 83.2279065,42.5707126 83.6047079,42.8651022 C83.9815094,43.1594917 86.3643355,41.7873929 88.926899,39.8004337 C91.4894626,37.8134746 92.2443463,35.1694878 90.6129791,33.8949241 C88.9816119,32.6203603 86.5987858,33.9924591 85.2907881,36.9595925 L85.2907881,36.9595925 Z" id="Oval-1-Copy-18" stroke="#919191" fill="#635B55" sketch:type="MSShapeGroup"></path>
            <path d="M71.142638,31.0349464 C70.8719059,34.2662685 71.0189472,37.0119732 71.4710638,37.1676494 C71.9231804,37.3233257 73.7294751,35.2502085 75.5055359,32.5372126 C77.2815967,29.8242167 77.1345554,27.078512 75.1771101,26.4045095 C73.2196647,25.730507 71.41337,27.8036242 71.142638,31.0349464 L71.142638,31.0349464 Z" id="Oval-1-Copy-19" stroke="#919191" fill="#635B55" sketch:type="MSShapeGroup"></path>
            <path d="M58.7397255,32.0200049 C58.8975211,35.258807 58.6547458,37.9977074 58.1974716,38.1375102 C57.7401974,38.2773129 56.0073538,36.1424198 54.3270571,33.369093 C52.6467604,30.5957662 52.8895358,27.8568658 54.8693111,27.2515877 C56.8490864,26.6463097 58.5819299,28.7812027 58.7397255,32.0200049 L58.7397255,32.0200049 Z" id="Oval-1-Copy-20" stroke="#919191" fill="#635B55" sketch:type="MSShapeGroup"></path>
            <path d="M33.2199026,50.3285707 C35.5441647,52.5896643 37.2345356,54.7583417 36.9954517,55.1724472 C36.7563678,55.5865527 34.0330526,55.2069872 30.912757,54.324664 C27.7924615,53.4423407 26.1020906,51.2736634 27.1372079,49.4807875 C28.1723253,47.6879117 30.8956404,48.0674771 33.2199026,50.3285707 L33.2199026,50.3285707 Z" id="Oval-1-Copy-11" stroke="#919191" fill="#635B55" sketch:type="MSShapeGroup"></path>
            <path d="M29.6561219,70.3673329 C32.6135534,69.0375444 34.9437139,67.5777952 34.8606809,67.1068918 C34.7776479,66.6359883 32.0887497,66.0612346 28.8548587,65.8231433 C25.6209676,65.585052 23.2908072,67.0448012 23.6502997,69.0835844 C24.0097922,71.1223676 26.6986904,71.6971214 29.6561219,70.3673329 L29.6561219,70.3673329 Z" id="Oval-1-Copy-12" stroke="#919191" fill="#635B55" sketch:type="MSShapeGroup"></path>
            <path d="M33.9436893,85.9170968 C36.1876245,83.5762651 37.80128,81.3499157 37.5478896,80.9444064 C37.2944992,80.538897 34.5860897,81.0132736 31.4984876,82.0039561 C28.4108855,82.9946386 26.79723,85.220988 27.8942873,86.9766466 C28.9913445,88.7323052 31.6997541,88.2579286 33.9436893,85.9170968 L33.9436893,85.9170968 Z" id="Oval-1-Copy-13" stroke="#919191" fill="#635B55" sketch:type="MSShapeGroup"></path>
            <path d="M57.7194746,104.078784 C57.8207212,100.837721 57.5301824,98.1034747 57.070538,97.9716738 C56.6108935,97.8398729 54.9155729,100.004683 53.2839333,102.806913 C51.6522938,105.609142 51.9428326,108.343389 53.9328699,108.914023 C55.9229072,109.484657 57.6182279,107.319847 57.7194746,104.078784 L57.7194746,104.078784 Z" id="Oval-1-Copy-14" stroke="#919191" fill="#635B55" sketch:type="MSShapeGroup"></path>
            <path d="M43.1530862,97.8149784 C44.461084,94.8478451 45.2159678,92.2038583 44.8391663,91.9094688 C44.4623649,91.6150792 42.0795388,92.987178 39.5169753,94.9741372 C36.9544117,96.9610964 36.1995279,99.6050831 37.8308951,100.879647 C39.4622623,102.154211 41.8450885,100.782112 43.1530862,97.8149784 L43.1530862,97.8149784 Z" id="Oval-1-Copy-15" stroke="#919191" fill="#635B55" sketch:type="MSShapeGroup"></path>
            <path d="M84.4560383,99.3060857 C83.573715,96.1857902 83.1941495,93.462475 83.6082551,93.2233911 C84.0223606,92.9843072 86.191038,94.6746781 88.4521315,96.9989402 C90.7132251,99.3232023 91.0927906,102.046517 89.2999148,103.081635 C87.5070389,104.116752 85.3383615,102.426381 84.4560383,99.3060857 L84.4560383,99.3060857 Z" id="Oval-1-Copy-21" stroke="#919191" fill="#635B55" sketch:type="MSShapeGroup"></path>
            <path d="M101.792515,78.410937 C98.6950676,77.4514808 96.2043772,76.2865875 96.2294026,75.8090749 C96.2544279,75.3315623 98.8532386,74.4333985 102.034009,73.8029697 C105.214779,73.1725409 107.705469,74.3374343 107.597121,76.4048318 C107.488774,78.4722293 104.889963,79.3703932 101.792515,78.410937 L101.792515,78.410937 Z" id="Oval-1-Copy-22" stroke="#919191" fill="#635B55" sketch:type="MSShapeGroup"></path>
            <path d="M74.0171313,103.847994 C73.166359,100.718949 72.0890991,98.1891215 71.611004,98.1974667 C71.132909,98.2058118 70.1445951,100.771694 69.4035431,103.928525 C68.6624911,107.085356 69.739751,109.615183 71.8096704,109.579052 C73.8795898,109.542922 74.8679037,106.97704 74.0171313,103.847994 L74.0171313,103.847994 Z" id="Oval-1-Copy-23" stroke="#919191" fill="#635B55" sketch:type="MSShapeGroup"></path>
            <path d="M103.012998,59.3241286 C100.239671,61.0044253 98.104778,62.7372689 98.2445807,63.1945431 C98.3843835,63.6518173 101.123284,63.8945927 104.362086,63.7367971 C107.600888,63.5790015 109.735781,61.8461579 109.130503,59.8663826 C108.525225,57.8866073 105.786325,57.6438319 103.012998,59.3241286 L103.012998,59.3241286 Z" id="Oval-1-Copy-24" stroke="#919191" fill="#635B55" sketch:type="MSShapeGroup"></path>
            <path d="M95.8041539,90.7345078 C94.2425308,87.8926648 93.2600809,85.3245317 93.6097908,84.998422 C93.9595006,84.6723123 96.4528456,85.8315128 99.1788327,87.5875689 C101.90482,89.3436249 102.88727,91.9117581 101.373196,93.3236547 C99.8591221,94.7355514 97.3657771,93.5763508 95.8041539,90.7345078 L95.8041539,90.7345078 Z" id="Oval-1-Copy-25" stroke="#919191" fill="#635B55" sketch:type="MSShapeGroup"></path>
        </g>
        <g id="Group-Copy-2" sketch:type="MSLayerGroup" transform="translate(476.000000, 49.000000)">
            <circle id="Oval-1-Copy" stroke="#A79E96" stroke-width="8" fill="#DDE9BD" sketch:type="MSShapeGroup" cx="65" cy="65" r="65"></circle>
            <circle id="Oval-1-Copy-2" fill="#DEF0CC" sketch:type="MSShapeGroup" cx="65.4421769" cy="68.0952381" r="45.9863946"></circle>
            <circle id="Oval-1" opacity="0.470965485" fill="#F5F7EE" sketch:type="MSShapeGroup" cx="65.4421769" cy="68.0952381" r="28.7414966"></circle>
            <path d="M39.6502407,40.3000395 C42.1777367,42.3314189 44.5362535,43.7448948 44.9181353,43.4571262 C45.3000172,43.1693576 44.5913923,40.512599 43.3353774,37.5230898 C42.0793624,34.5335806 39.7208457,33.1201047 38.0674827,34.3660031 C36.4141198,35.6119014 37.1227447,38.26866 39.6502407,40.3000395 L39.6502407,40.3000395 Z" id="Oval-1-Copy-10" stroke="#919191" fill="#635B55" sketch:type="MSShapeGroup"></path>
            <path d="M96.3379206,46.5731817 C94.0136584,48.8342752 92.3232875,51.0029526 92.5623714,51.4170581 C92.8014554,51.8311637 95.5247705,51.4515982 98.6450661,50.5692749 C101.765362,49.6869517 103.455733,47.5182743 102.420615,45.7253984 C101.385498,43.9325226 98.6621827,44.3120881 96.3379206,46.5731817 L96.3379206,46.5731817 Z" id="Oval-1-Copy-17" stroke="#919191" fill="#635B55" sketch:type="MSShapeGroup"></path>
            <path d="M85.2907881,36.9595925 C83.9827903,39.9267259 83.2279065,42.5707126 83.6047079,42.8651022 C83.9815094,43.1594917 86.3643355,41.7873929 88.926899,39.8004337 C91.4894626,37.8134746 92.2443463,35.1694878 90.6129791,33.8949241 C88.9816119,32.6203603 86.5987858,33.9924591 85.2907881,36.9595925 L85.2907881,36.9595925 Z" id="Oval-1-Copy-18" stroke="#919191" fill="#635B55" sketch:type="MSShapeGroup"></path>
            <path d="M71.142638,31.0349464 C70.8719059,34.2662685 71.0189472,37.0119732 71.4710638,37.1676494 C71.9231804,37.3233257 73.7294751,35.2502085 75.5055359,32.5372126 C77.2815967,29.8242167 77.1345554,27.078512 75.1771101,26.4045095 C73.2196647,25.730507 71.41337,27.8036242 71.142638,31.0349464 L71.142638,31.0349464 Z" id="Oval-1-Copy-19" stroke="#919191" fill="#635B55" sketch:type="MSShapeGroup"></path>
            <path d="M58.7397255,32.0200049 C58.8975211,35.258807 58.6547458,37.9977074 58.1974716,38.1375102 C57.7401974,38.2773129 56.0073538,36.1424198 54.3270571,33.369093 C52.6467604,30.5957662 52.8895358,27.8568658 54.8693111,27.2515877 C56.8490864,26.6463097 58.5819299,28.7812027 58.7397255,32.0200049 L58.7397255,32.0200049 Z" id="Oval-1-Copy-20" stroke="#919191" fill="#635B55" sketch:type="MSShapeGroup"></path>
            <path d="M33.2199026,50.3285707 C35.5441647,52.5896643 37.2345356,54.7583417 36.9954517,55.1724472 C36.7563678,55.5865527 34.0330526,55.2069872 30.912757,54.324664 C27.7924615,53.4423407 26.1020906,51.2736634 27.1372079,49.4807875 C28.1723253,47.6879117 30.8956404,48.0674771 33.2199026,50.3285707 L33.2199026,50.3285707 Z" id="Oval-1-Copy-11" stroke="#919191" fill="#635B55" sketch:type="MSShapeGroup"></path>
            <path d="M29.6561219,70.3673329 C32.6135534,69.0375444 34.9437139,67.5777952 34.8606809,67.1068918 C34.7776479,66.6359883 32.0887497,66.0612346 28.8548587,65.8231433 C25.6209676,65.585052 23.2908072,67.0448012 23.6502997,69.0835844 C24.0097922,71.1223676 26.6986904,71.6971214 29.6561219,70.3673329 L29.6561219,70.3673329 Z" id="Oval-1-Copy-12" stroke="#919191" fill="#635B55" sketch:type="MSShapeGroup"></path>
            <path d="M33.9436893,85.9170968 C36.1876245,83.5762651 37.80128,81.3499157 37.5478896,80.9444064 C37.2944992,80.538897 34.5860897,81.0132736 31.4984876,82.0039561 C28.4108855,82.9946386 26.79723,85.220988 27.8942873,86.9766466 C28.9913445,88.7323052 31.6997541,88.2579286 33.9436893,85.9170968 L33.9436893,85.9170968 Z" id="Oval-1-Copy-13" stroke="#919191" fill="#635B55" sketch:type="MSShapeGroup"></path>
            <path d="M57.7194746,104.078784 C57.8207212,100.837721 57.5301824,98.1034747 57.070538,97.9716738 C56.6108935,97.8398729 54.9155729,100.004683 53.2839333,102.806913 C51.6522938,105.609142 51.9428326,108.343389 53.9328699,108.914023 C55.9229072,109.484657 57.6182279,107.319847 57.7194746,104.078784 L57.7194746,104.078784 Z" id="Oval-1-Copy-14" stroke="#919191" fill="#635B55" sketch:type="MSShapeGroup"></path>
            <path d="M43.1530862,97.8149784 C44.461084,94.8478451 45.2159678,92.2038583 44.8391663,91.9094688 C44.4623649,91.6150792 42.0795388,92.987178 39.5169753,94.9741372 C36.9544117,96.9610964 36.1995279,99.6050831 37.8308951,100.879647 C39.4622623,102.154211 41.8450885,100.782112 43.1530862,97.8149784 L43.1530862,97.8149784 Z" id="Oval-1-Copy-15" stroke="#919191" fill="#635B55" sketch:type="MSShapeGroup"></path>
            <path d="M84.4560383,99.3060857 C83.573715,96.1857902 83.1941495,93.462475 83.6082551,93.2233911 C84.0223606,92.9843072 86.191038,94.6746781 88.4521315,96.9989402 C90.7132251,99.3232023 91.0927906,102.046517 89.2999148,103.081635 C87.5070389,104.116752 85.3383615,102.426381 84.4560383,99.3060857 L84.4560383,99.3060857 Z" id="Oval-1-Copy-21" stroke="#919191" fill="#635B55" sketch:type="MSShapeGroup"></path>
            <path d="M101.792515,78.410937 C98.6950676,77.4514808 96.2043772,76.2865875 96.2294026,75.8090749 C96.2544279,75.3315623 98.8532386,74.4333985 102.034009,73.8029697 C105.214779,73.1725409 107.705469,74.3374343 107.597121,76.4048318 C107.488774,78.4722293 104.889963,79.3703932 101.792515,78.410937 L101.792515,78.410937 Z" id="Oval-1-Copy-22" stroke="#919191" fill="#635B55" sketch:type="MSShapeGroup"></path>
            <path d="M74.0171313,103.847994 C73.166359,100.718949 72.0890991,98.1891215 71.611004,98.1974667 C71.132909,98.2058118 70.1445951,100.771694 69.4035431,103.928525 C68.6624911,107.085356 69.739751,109.615183 71.8096704,109.579052 C73.8795898,109.542922 74.8679037,106.97704 74.0171313,103.847994 L74.0171313,103.847994 Z" id="Oval-1-Copy-23" stroke="#919191" fill="#635B55" sketch:type="MSShapeGroup"></path>
            <path d="M103.012998,59.3241286 C100.239671,61.0044253 98.104778,62.7372689 98.2445807,63.1945431 C98.3843835,63.6518173 101.123284,63.8945927 104.362086,63.7367971 C107.600888,63.5790015 109.735781,61.8461579 109.130503,59.8663826 C108.525225,57.8866073 105.786325,57.6438319 103.012998,59.3241286 L103.012998,59.3241286 Z" id="Oval-1-Copy-24" stroke="#919191" fill="#635B55" sketch:type="MSShapeGroup"></path>
            <path d="M95.8041539,90.7345078 C94.2425308,87.8926648 93.2600809,85.3245317 93.6097908,84.998422 C93.9595006,84.6723123 96.4528456,85.8315128 99.1788327,87.5875689 C101.90482,89.3436249 102.88727,91.9117581 101.373196,93.3236547 C99.8591221,94.7355514 97.3657771,93.5763508 95.8041539,90.7345078 L95.8041539,90.7345078 Z" id="Oval-1-Copy-25" stroke="#919191" fill="#635B55" sketch:type="MSShapeGroup"></path>
        </g>
    </g>
</svg>