<?xml version="1.0" encoding="UTF-8" standalone="no"?>
<svg width="863px" height="539px" viewBox="0 0 863 539" version="1.1" xmlns="http://www.w3.org/2000/svg" xmlns:xlink="http://www.w3.org/1999/xlink" xmlns:sketch="http://www.bohemiancoding.com/sketch/ns">
    <!-- Generator: Sketch 3.3.1 (12005) - http://www.bohemiancoding.com/sketch -->
    <title>Slice 1</title>
    <desc>Created with Sketch.</desc>
    <defs></defs>
    <g id="Page-1" stroke="none" stroke-width="1" fill="none" fill-rule="evenodd" sketch:type="MSPage">
        <g id="Group" sketch:type="MSLayerGroup" transform="translate(780.187363, 271.500000) rotate(-7.000000) translate(-780.187363, -271.500000) translate(725.687363, 171.000000)">
            <path d="M56.4714114,88.4624182 L56.4714114,88.4624182 C64.3874026,88.4624182 70.8045814,78.1860193 70.8045814,65.509439 C70.8045814,52.8328586 64.3874026,42.5564598 56.4714114,42.5564598" id="Oval-1-Copy-17" fill="#9FAC9F" sketch:type="MSShapeGroup" transform="translate(63.637996, 65.509439) scale(-1, 1) rotate(-24.000000) translate(-63.637996, -65.509439) "></path>
            <path d="M29.833415,82.2274942 L29.833415,82.2274942 C37.7494062,82.2274942 44.166585,71.9510954 44.166585,59.274515 C44.166585,46.5979346 37.7494062,36.3215358 29.833415,36.3215358" id="Oval-1-Copy-19" fill="#9FAC9F" sketch:type="MSShapeGroup" transform="translate(37.000000, 59.274515) rotate(-61.000000) translate(-37.000000, -59.274515) "></path>
            <g transform="translate(0.000000, 14.000000)" sketch:type="MSShapeGroup">
                <path d="M17.7980355,57.0665565 L17.7980355,57.0665565 C25.7140268,57.0665565 32.1312056,46.7901577 32.1312056,34.1135773 C32.1312056,21.436997 25.7140268,11.1605981 17.7980355,11.1605981" id="Oval-1-Copy-5" fill="#9FAC9F" transform="translate(24.964621, 34.113577) rotate(-31.000000) translate(-24.964621, -34.113577) "></path>
                <path d="M16.8829723,74.4624182 L16.8829723,74.4624182 C24.7989635,74.4624182 31.2161423,64.1860193 31.2161423,51.509439 C31.2161423,38.8328586 24.7989635,28.5564598 16.8829723,28.5564598" id="Oval-1-Copy-6" fill="#9FAC9F" transform="translate(24.049557, 51.509439) rotate(-61.000000) translate(-24.049557, -51.509439) "></path>
                <path d="M44.3422452,67.6649768 L44.3422452,67.6649768 C52.2582364,67.6649768 58.6754152,57.388578 58.6754152,44.7119976 C58.6754152,32.0354172 52.2582364,21.7590184 44.3422452,21.7590184" id="Oval-1-Copy-10" fill="#8C918C" transform="translate(51.508830, 44.711998) rotate(-41.000000) translate(-51.508830, -44.711998) "></path>
                <path d="M16.8829723,74.4624182 L16.8829723,74.4624182 C24.7989635,74.4624182 31.2161423,64.1860193 31.2161423,51.509439 C31.2161423,38.8328586 24.7989635,28.5564598 16.8829723,28.5564598" id="Oval-1-Copy-14" stroke="#8C918C" fill="#9FAC9F" transform="translate(24.049557, 51.509439) rotate(-61.000000) translate(-24.049557, -51.509439) "></path>
                <path d="M16.8829723,74.4624182 L16.8829723,74.4624182 C24.7989635,74.4624182 31.2161423,64.1860193 31.2161423,51.509439 C31.2161423,38.8328586 24.7989635,28.5564598 16.8829723,28.5564598" id="Oval-1-Copy-15" fill="#9FAC9F" transform="translate(24.049557, 51.509439) rotate(-61.000000) translate(-24.049557, -51.509439) "></path>
                <path d="M16.8829723,74.4624182 L16.8829723,74.4624182 C24.7989635,74.4624182 31.2161423,64.1860193 31.2161423,51.509439 C31.2161423,38.8328586 24.7989635,28.5564598 16.8829723,28.5564598" id="Oval-1-Copy-16" fill="#9FAC9F" transform="translate(24.049557, 51.509439) rotate(-61.000000) translate(-24.049557, -51.509439) "></path>
                <path d="M32.9507853,45.6404407 L32.9507853,45.6404407 C40.8667765,45.6404407 47.2839553,35.3640419 47.2839553,22.6874615 C47.2839553,10.0108811 40.8667765,-0.265517733 32.9507853,-0.265517733" id="Oval-1-Copy-11" fill="#9FAC9F" transform="translate(40.117370, 22.687461) rotate(-37.000000) translate(-40.117370, -22.687461) "></path>
                <path d="M31.5925196,61.3450405 L31.5925196,61.3450405 C39.5085108,61.3450405 45.9256897,51.0686416 45.9256897,38.3920613 C45.9256897,25.7154809 39.5085108,15.439082 31.5925196,15.439082" id="Oval-1-Copy-12" fill="#9FAC9F" transform="translate(38.759105, 38.392061) rotate(-43.000000) translate(-38.759105, -38.392061) "></path>
                <path d="M17.7980355,63.0363023 L17.7980355,63.0363023 C25.7140268,63.0363023 32.1312056,52.7599035 32.1312056,40.0833231 C32.1312056,27.4067427 25.7140268,17.1303439 17.7980355,17.1303439" id="Oval-1-Copy-13" fill="#8C918C" transform="translate(24.964621, 40.083323) rotate(-61.000000) translate(-24.964621, -40.083323) "></path>
            </g>
            <g id="Group-Copy" transform="translate(73.000000, 48.500000) scale(-1, 1) translate(-73.000000, -48.500000) translate(37.000000, 14.000000)" sketch:type="MSShapeGroup">
                <path d="M17.7980355,57.0665565 L17.7980355,57.0665565 C25.7140268,57.0665565 32.1312056,46.7901577 32.1312056,34.1135773 C32.1312056,21.436997 25.7140268,11.1605981 17.7980355,11.1605981" id="Oval-1-Copy-5" fill="#8C918C" transform="translate(24.964621, 34.113577) rotate(-31.000000) translate(-24.964621, -34.113577) "></path>
                <path d="M16.8829723,74.4624182 L16.8829723,74.4624182 C24.7989635,74.4624182 31.2161423,64.1860193 31.2161423,51.509439 C31.2161423,38.8328586 24.7989635,28.5564598 16.8829723,28.5564598" id="Oval-1-Copy-6" stroke="#8C918C" fill="#9FAC9F" transform="translate(24.049557, 51.509439) rotate(-61.000000) translate(-24.049557, -51.509439) "></path>
                <path d="M44.3422452,67.6649768 L44.3422452,67.6649768 C52.2582364,67.6649768 58.6754152,57.388578 58.6754152,44.7119976 C58.6754152,32.0354172 52.2582364,21.7590184 44.3422452,21.7590184" id="Oval-1-Copy-10" fill="#8C918C" transform="translate(51.508830, 44.711998) rotate(-41.000000) translate(-51.508830, -44.711998) "></path>
                <path d="M16.8829723,74.4624182 L16.8829723,74.4624182 C24.7989635,74.4624182 31.2161423,64.1860193 31.2161423,51.509439 C31.2161423,38.8328586 24.7989635,28.5564598 16.8829723,28.5564598" id="Oval-1-Copy-14" fill="#9FAC9F" transform="translate(24.049557, 51.509439) rotate(-61.000000) translate(-24.049557, -51.509439) "></path>
                <path d="M16.8829723,74.4624182 L16.8829723,74.4624182 C24.7989635,74.4624182 31.2161423,64.1860193 31.2161423,51.509439 C31.2161423,38.8328586 24.7989635,28.5564598 16.8829723,28.5564598" id="Oval-1-Copy-15" fill="#9FAC9F" transform="translate(24.049557, 51.509439) rotate(-61.000000) translate(-24.049557, -51.509439) "></path>
                <path d="M16.8829723,74.4624182 L16.8829723,74.4624182 C24.7989635,74.4624182 31.2161423,64.1860193 31.2161423,51.509439 C31.2161423,38.8328586 24.7989635,28.5564598 16.8829723,28.5564598" id="Oval-1-Copy-16" fill="#9FAC9F" transform="translate(24.049557, 51.509439) rotate(-61.000000) translate(-24.049557, -51.509439) "></path>
                <path d="M32.9507853,45.6404407 L32.9507853,45.6404407 C40.8667765,45.6404407 47.2839553,35.3640419 47.2839553,22.6874615 C47.2839553,10.0108811 40.8667765,-0.265517733 32.9507853,-0.265517733" id="Oval-1-Copy-11" fill="#9FAC9F" transform="translate(40.117370, 22.687461) rotate(-37.000000) translate(-40.117370, -22.687461) "></path>
                <path d="M31.5925196,61.3450405 L31.5925196,61.3450405 C39.5085108,61.3450405 45.9256897,51.0686416 45.9256897,38.3920613 C45.9256897,25.7154809 39.5085108,15.439082 31.5925196,15.439082" id="Oval-1-Copy-12" fill="#9FAC9F" transform="translate(38.759105, 38.392061) rotate(-43.000000) translate(-38.759105, -38.392061) "></path>
                <path d="M17.7980355,63.0363023 L17.7980355,63.0363023 C25.7140268,63.0363023 32.1312056,52.7599035 32.1312056,40.0833231 C32.1312056,27.4067427 25.7140268,17.1303439 17.7980355,17.1303439" id="Oval-1-Copy-13" fill="#8C918C" transform="translate(24.964621, 40.083323) rotate(-61.000000) translate(-24.964621, -40.083323) "></path>
            </g>
            <rect id="Rectangle-2" fill="#F2EEC2" sketch:type="MSShapeGroup" x="7" y="71" width="97" height="130" rx="40"></rect>
            <path d="M45.936905,47.4357709 L45.936905,47.4357709 C53.8528962,47.4357709 60.270075,37.1593721 60.270075,24.4827917 C60.270075,11.8062114 53.8528962,1.52981252 45.936905,1.52981252" id="Oval-1-Copy-21" fill="#9FAC9F" sketch:type="MSShapeGroup" transform="translate(53.103490, 24.482792) scale(-1, 1) rotate(-28.000000) translate(-53.103490, -24.482792) "></path>
            <path d="M40.9785356,64.8316326 L40.9785356,64.8316326 C48.8945268,64.8316326 55.3117056,54.5552337 55.3117056,41.8786534 C55.3117056,29.202073 48.8945268,18.9256741 40.9785356,18.9256741" id="Oval-1-Copy-23" fill="#9FAC9F" sketch:type="MSShapeGroup" transform="translate(48.145121, 41.878653) rotate(-28.000000) translate(-48.145121, -41.878653) "></path>
            <path d="M103.248611,115.77 C82.2617901,115.77 65.2486106,95.7286544 65.2486106,71" id="Rectangle-1-Copy-7" stroke="#E4CFAE" stroke-width="3" sketch:type="MSShapeGroup"></path>
            <path d="M103.248611,136 C67.3501018,136 38.2486106,107.350321 38.2486106,72" id="Rectangle-1-Copy-8" stroke="#E4CFAE" stroke-width="3" sketch:type="MSShapeGroup"></path>
            <path d="M103.248611,158.384237 C58.5135458,158.384237 22.2486106,123.295437 22.2486106,80" id="Rectangle-1-Copy-10" stroke="#E4CFAE" stroke-width="3" sketch:type="MSShapeGroup"></path>
            <path d="M99,179.384237 C49.4316763,179.384237 9.24861058,144.295437 9.24861058,101" id="Rectangle-1-Copy-11" stroke="#E4CFAE" stroke-width="3" sketch:type="MSShapeGroup"></path>
            <path d="M99,179.384237 C49.4316763,179.384237 9.24861058,144.295437 9.24861058,101" id="Rectangle-1-Copy-12" stroke="#E4CFAE" stroke-width="3" sketch:type="MSShapeGroup"></path>
            <path d="M56.0177664,51.2137874 L56.0177664,51.2137874 C63.9337577,51.2137874 70.3509365,40.9373886 70.3509365,28.2608082 C70.3509365,15.5842279 63.9337577,5.30782902 56.0177664,5.30782902" id="Oval-1-Copy-20" fill="#8C918C" sketch:type="MSShapeGroup" transform="translate(63.184351, 28.260808) scale(-1, 1) rotate(-42.000000) translate(-63.184351, -28.260808) "></path>
            <path d="M34.5385817,50.6002101 L34.5385817,50.6002101 C42.454573,50.6002101 48.8717518,40.3238113 48.8717518,27.6472309 C48.8717518,14.9706505 42.454573,4.69425169 34.5385817,4.69425169" id="Oval-1-Copy-22" fill="#8C918C" sketch:type="MSShapeGroup" transform="translate(41.705167, 27.647231) rotate(-42.000000) translate(-41.705167, -27.647231) "></path>
            <path d="M103.248611,115.77 C82.2617901,115.77 65.2486106,95.7286544 65.2486106,71" id="Rectangle-1-Copy-9" stroke="#E4CFAE" stroke-width="3" sketch:type="MSShapeGroup"></path>
            <path d="M81.2486106,195 C41.4841086,195 9.24861058,169.036228 9.24861058,137" id="Rectangle-1-Copy-18" stroke="#E4CFAE" stroke-width="3" sketch:type="MSShapeGroup"></path>
            <path d="M102.248611,195 C60.8272543,195 27.2486106,169.036228 27.2486106,137" id="Rectangle-1-Copy-23" stroke="#E4CFAE" stroke-width="3" sketch:type="MSShapeGroup" transform="translate(64.748611, 166.000000) scale(-1, 1) translate(-64.748611, -166.000000) "></path>
            <path d="M103.248611,136 C67.3501018,136 38.2486106,107.350321 38.2486106,72" id="Rectangle-1-Copy-14" stroke="#E4CFAE" stroke-width="3" sketch:type="MSShapeGroup"></path>
            <path d="M72.2486106,136 C36.3501018,136 7.24861058,107.350321 7.24861058,72" id="Rectangle-1-Copy-20" stroke="#E4CFAE" stroke-width="3" sketch:type="MSShapeGroup" transform="translate(39.748611, 104.000000) scale(-1, 1) translate(-39.748611, -104.000000) "></path>
            <path d="M103.248611,158.384237 C58.5135458,158.384237 22.2486106,123.295437 22.2486106,80" id="Rectangle-1-Copy-15" stroke="#E4CFAE" stroke-width="3" sketch:type="MSShapeGroup"></path>
            <path d="M88.2486106,158.384237 C43.5135458,158.384237 7.24861058,123.295437 7.24861058,80" id="Rectangle-1-Copy-21" stroke="#E4CFAE" stroke-width="3" sketch:type="MSShapeGroup" transform="translate(47.748611, 119.192119) scale(-1, 1) translate(-47.748611, -119.192119) "></path>
            <path d="M100,175.384237 C50.4316763,175.384237 10.2486106,140.295437 10.2486106,97" id="Rectangle-1-Copy-22" stroke="#E4CFAE" stroke-width="3" sketch:type="MSShapeGroup" transform="translate(55.124305, 136.192119) scale(-1, 1) translate(-55.124305, -136.192119) "></path>
            <path d="M103.248611,115.77 C82.2617901,115.77 65.2486106,95.7286544 65.2486106,71" id="Rectangle-1-Copy-17" stroke="#E4CFAE" stroke-width="3" sketch:type="MSShapeGroup"></path>
            <path d="M45.2486106,115.77 C24.2617901,115.77 7.24861058,95.7286544 7.24861058,71" id="Rectangle-1-Copy-19" stroke="#E4CFAE" stroke-width="3" sketch:type="MSShapeGroup" transform="translate(26.248611, 93.385000) scale(-1, 1) translate(-26.248611, -93.385000) "></path>
        </g>
        <g id="Group-Copy-2" sketch:type="MSLayerGroup" transform="translate(569.500000, 434.500000) rotate(-30.000000) translate(-569.500000, -434.500000) translate(515.000000, 334.000000)">
            <path d="M56.4714114,88.4624182 L56.4714114,88.4624182 C64.3874026,88.4624182 70.8045814,78.1860193 70.8045814,65.509439 C70.8045814,52.8328586 64.3874026,42.5564598 56.4714114,42.5564598" id="Oval-1-Copy-17" fill="#9FAC9F" sketch:type="MSShapeGroup" transform="translate(63.637996, 65.509439) scale(-1, 1) rotate(-24.000000) translate(-63.637996, -65.509439) "></path>
            <path d="M29.833415,82.2274942 L29.833415,82.2274942 C37.7494062,82.2274942 44.166585,71.9510954 44.166585,59.274515 C44.166585,46.5979346 37.7494062,36.3215358 29.833415,36.3215358" id="Oval-1-Copy-19" fill="#9FAC9F" sketch:type="MSShapeGroup" transform="translate(37.000000, 59.274515) rotate(-61.000000) translate(-37.000000, -59.274515) "></path>
            <g id="Group" transform="translate(-0.000000, 14.000000)" sketch:type="MSShapeGroup">
                <path d="M17.7980355,57.0665565 L17.7980355,57.0665565 C25.7140268,57.0665565 32.1312056,46.7901577 32.1312056,34.1135773 C32.1312056,21.436997 25.7140268,11.1605981 17.7980355,11.1605981" id="Oval-1-Copy-5" fill="#9FAC9F" transform="translate(24.964621, 34.113577) rotate(-31.000000) translate(-24.964621, -34.113577) "></path>
                <path d="M16.8829723,74.4624182 L16.8829723,74.4624182 C24.7989635,74.4624182 31.2161423,64.1860193 31.2161423,51.509439 C31.2161423,38.8328586 24.7989635,28.5564598 16.8829723,28.5564598" id="Oval-1-Copy-6" fill="#9FAC9F" transform="translate(24.049557, 51.509439) rotate(-61.000000) translate(-24.049557, -51.509439) "></path>
                <path d="M44.3422452,67.6649768 L44.3422452,67.6649768 C52.2582364,67.6649768 58.6754152,57.388578 58.6754152,44.7119976 C58.6754152,32.0354172 52.2582364,21.7590184 44.3422452,21.7590184" id="Oval-1-Copy-10" fill="#8C918C" transform="translate(51.508830, 44.711998) rotate(-41.000000) translate(-51.508830, -44.711998) "></path>
                <path d="M16.8829723,74.4624182 L16.8829723,74.4624182 C24.7989635,74.4624182 31.2161423,64.1860193 31.2161423,51.509439 C31.2161423,38.8328586 24.7989635,28.5564598 16.8829723,28.5564598" id="Oval-1-Copy-14" stroke="#8C918C" fill="#9FAC9F" transform="translate(24.049557, 51.509439) rotate(-61.000000) translate(-24.049557, -51.509439) "></path>
                <path d="M16.8829723,74.4624182 L16.8829723,74.4624182 C24.7989635,74.4624182 31.2161423,64.1860193 31.2161423,51.509439 C31.2161423,38.8328586 24.7989635,28.5564598 16.8829723,28.5564598" id="Oval-1-Copy-15" fill="#9FAC9F" transform="translate(24.049557, 51.509439) rotate(-61.000000) translate(-24.049557, -51.509439) "></path>
                <path d="M16.8829723,74.4624182 L16.8829723,74.4624182 C24.7989635,74.4624182 31.2161423,64.1860193 31.2161423,51.509439 C31.2161423,38.8328586 24.7989635,28.5564598 16.8829723,28.5564598" id="Oval-1-Copy-16" fill="#9FAC9F" transform="translate(24.049557, 51.509439) rotate(-61.000000) translate(-24.049557, -51.509439) "></path>
                <path d="M32.9507853,45.6404407 L32.9507853,45.6404407 C40.8667765,45.6404407 47.2839553,35.3640419 47.2839553,22.6874615 C47.2839553,10.0108811 40.8667765,-0.265517733 32.9507853,-0.265517733" id="Oval-1-Copy-11" fill="#9FAC9F" transform="translate(40.117370, 22.687461) rotate(-37.000000) translate(-40.117370, -22.687461) "></path>
                <path d="M31.5925196,61.3450405 L31.5925196,61.3450405 C39.5085108,61.3450405 45.9256897,51.0686416 45.9256897,38.3920613 C45.9256897,25.7154809 39.5085108,15.439082 31.5925196,15.439082" id="Oval-1-Copy-12" fill="#9FAC9F" transform="translate(38.759105, 38.392061) rotate(-43.000000) translate(-38.759105, -38.392061) "></path>
                <path d="M17.7980355,63.0363023 L17.7980355,63.0363023 C25.7140268,63.0363023 32.1312056,52.7599035 32.1312056,40.0833231 C32.1312056,27.4067427 25.7140268,17.1303439 17.7980355,17.1303439" id="Oval-1-Copy-13" fill="#8C918C" transform="translate(24.964621, 40.083323) rotate(-61.000000) translate(-24.964621, -40.083323) "></path>
            </g>
            <g id="Group-Copy" transform="translate(73.000000, 48.500000) scale(-1, 1) translate(-73.000000, -48.500000) translate(37.000000, 14.000000)" sketch:type="MSShapeGroup">
                <path d="M17.7980355,57.0665565 L17.7980355,57.0665565 C25.7140268,57.0665565 32.1312056,46.7901577 32.1312056,34.1135773 C32.1312056,21.436997 25.7140268,11.1605981 17.7980355,11.1605981" id="Oval-1-Copy-5" fill="#8C918C" transform="translate(24.964621, 34.113577) rotate(-31.000000) translate(-24.964621, -34.113577) "></path>
                <path d="M16.8829723,74.4624182 L16.8829723,74.4624182 C24.7989635,74.4624182 31.2161423,64.1860193 31.2161423,51.509439 C31.2161423,38.8328586 24.7989635,28.5564598 16.8829723,28.5564598" id="Oval-1-Copy-6" stroke="#8C918C" fill="#9FAC9F" transform="translate(24.049557, 51.509439) rotate(-61.000000) translate(-24.049557, -51.509439) "></path>
                <path d="M44.3422452,67.6649768 L44.3422452,67.6649768 C52.2582364,67.6649768 58.6754152,57.388578 58.6754152,44.7119976 C58.6754152,32.0354172 52.2582364,21.7590184 44.3422452,21.7590184" id="Oval-1-Copy-10" fill="#8C918C" transform="translate(51.508830, 44.711998) rotate(-41.000000) translate(-51.508830, -44.711998) "></path>
                <path d="M16.8829723,74.4624182 L16.8829723,74.4624182 C24.7989635,74.4624182 31.2161423,64.1860193 31.2161423,51.509439 C31.2161423,38.8328586 24.7989635,28.5564598 16.8829723,28.5564598" id="Oval-1-Copy-14" fill="#9FAC9F" transform="translate(24.049557, 51.509439) rotate(-61.000000) translate(-24.049557, -51.509439) "></path>
                <path d="M16.8829723,74.4624182 L16.8829723,74.4624182 C24.7989635,74.4624182 31.2161423,64.1860193 31.2161423,51.509439 C31.2161423,38.8328586 24.7989635,28.5564598 16.8829723,28.5564598" id="Oval-1-Copy-15" fill="#9FAC9F" transform="translate(24.049557, 51.509439) rotate(-61.000000) translate(-24.049557, -51.509439) "></path>
                <path d="M16.8829723,74.4624182 L16.8829723,74.4624182 C24.7989635,74.4624182 31.2161423,64.1860193 31.2161423,51.509439 C31.2161423,38.8328586 24.7989635,28.5564598 16.8829723,28.5564598" id="Oval-1-Copy-16" fill="#9FAC9F" transform="translate(24.049557, 51.509439) rotate(-61.000000) translate(-24.049557, -51.509439) "></path>
                <path d="M32.9507853,45.6404407 L32.9507853,45.6404407 C40.8667765,45.6404407 47.2839553,35.3640419 47.2839553,22.6874615 C47.2839553,10.0108811 40.8667765,-0.265517733 32.9507853,-0.265517733" id="Oval-1-Copy-11" fill="#9FAC9F" transform="translate(40.117370, 22.687461) rotate(-37.000000) translate(-40.117370, -22.687461) "></path>
                <path d="M31.5925196,61.3450405 L31.5925196,61.3450405 C39.5085108,61.3450405 45.9256897,51.0686416 45.9256897,38.3920613 C45.9256897,25.7154809 39.5085108,15.439082 31.5925196,15.439082" id="Oval-1-Copy-12" fill="#9FAC9F" transform="translate(38.759105, 38.392061) rotate(-43.000000) translate(-38.759105, -38.392061) "></path>
                <path d="M17.7980355,63.0363023 L17.7980355,63.0363023 C25.7140268,63.0363023 32.1312056,52.7599035 32.1312056,40.0833231 C32.1312056,27.4067427 25.7140268,17.1303439 17.7980355,17.1303439" id="Oval-1-Copy-13" fill="#8C918C" transform="translate(24.964621, 40.083323) rotate(-61.000000) translate(-24.964621, -40.083323) "></path>
            </g>
            <rect id="Rectangle-2" fill="#F2EEC2" sketch:type="MSShapeGroup" x="7" y="71" width="97" height="130" rx="40"></rect>
            <path d="M45.936905,47.4357709 L45.936905,47.4357709 C53.8528962,47.4357709 60.270075,37.1593721 60.270075,24.4827917 C60.270075,11.8062114 53.8528962,1.52981252 45.936905,1.52981252" id="Oval-1-Copy-21" fill="#9FAC9F" sketch:type="MSShapeGroup" transform="translate(53.103490, 24.482792) scale(-1, 1) rotate(-28.000000) translate(-53.103490, -24.482792) "></path>
            <path d="M40.9785356,64.8316326 L40.9785356,64.8316326 C48.8945268,64.8316326 55.3117056,54.5552337 55.3117056,41.8786534 C55.3117056,29.202073 48.8945268,18.9256741 40.9785356,18.9256741" id="Oval-1-Copy-23" fill="#9FAC9F" sketch:type="MSShapeGroup" transform="translate(48.145121, 41.878653) rotate(-28.000000) translate(-48.145121, -41.878653) "></path>
            <path d="M103.248611,115.77 C82.2617901,115.77 65.2486106,95.7286544 65.2486106,71" id="Rectangle-1-Copy-7" stroke="#E4CFAE" stroke-width="3" sketch:type="MSShapeGroup"></path>
            <path d="M103.248611,136 C67.3501018,136 38.2486106,107.350321 38.2486106,72" id="Rectangle-1-Copy-8" stroke="#E4CFAE" stroke-width="3" sketch:type="MSShapeGroup"></path>
            <path d="M103.248611,158.384237 C58.5135458,158.384237 22.2486106,123.295437 22.2486106,80" id="Rectangle-1-Copy-10" stroke="#E4CFAE" stroke-width="3" sketch:type="MSShapeGroup"></path>
            <path d="M99,179.384237 C49.4316763,179.384237 9.24861058,144.295437 9.24861058,101" id="Rectangle-1-Copy-11" stroke="#E4CFAE" stroke-width="3" sketch:type="MSShapeGroup"></path>
            <path d="M99,179.384237 C49.4316763,179.384237 9.24861058,144.295437 9.24861058,101" id="Rectangle-1-Copy-12" stroke="#E4CFAE" stroke-width="3" sketch:type="MSShapeGroup"></path>
            <path d="M56.0177664,51.2137874 L56.0177664,51.2137874 C63.9337577,51.2137874 70.3509365,40.9373886 70.3509365,28.2608082 C70.3509365,15.5842279 63.9337577,5.30782902 56.0177664,5.30782902" id="Oval-1-Copy-20" fill="#8C918C" sketch:type="MSShapeGroup" transform="translate(63.184351, 28.260808) scale(-1, 1) rotate(-42.000000) translate(-63.184351, -28.260808) "></path>
            <path d="M34.5385817,50.6002101 L34.5385817,50.6002101 C42.454573,50.6002101 48.8717518,40.3238113 48.8717518,27.6472309 C48.8717518,14.9706505 42.454573,4.69425169 34.5385817,4.69425169" id="Oval-1-Copy-22" fill="#8C918C" sketch:type="MSShapeGroup" transform="translate(41.705167, 27.647231) rotate(-42.000000) translate(-41.705167, -27.647231) "></path>
            <path d="M103.248611,115.77 C82.2617901,115.77 65.2486106,95.7286544 65.2486106,71" id="Rectangle-1-Copy-9" stroke="#E4CFAE" stroke-width="3" sketch:type="MSShapeGroup"></path>
            <path d="M81.2486106,195 C41.4841086,195 9.24861058,169.036228 9.24861058,137" id="Rectangle-1-Copy-18" stroke="#E4CFAE" stroke-width="3" sketch:type="MSShapeGroup"></path>
            <path d="M102.248611,195 C60.8272543,195 27.2486106,169.036228 27.2486106,137" id="Rectangle-1-Copy-23" stroke="#E4CFAE" stroke-width="3" sketch:type="MSShapeGroup" transform="translate(64.748611, 166.000000) scale(-1, 1) translate(-64.748611, -166.000000) "></path>
            <path d="M103.248611,136 C67.3501018,136 38.2486106,107.350321 38.2486106,72" id="Rectangle-1-Copy-14" stroke="#E4CFAE" stroke-width="3" sketch:type="MSShapeGroup"></path>
            <path d="M72.2486106,136 C36.3501018,136 7.24861058,107.350321 7.24861058,72" id="Rectangle-1-Copy-20" stroke="#E4CFAE" stroke-width="3" sketch:type="MSShapeGroup" transform="translate(39.748611, 104.000000) scale(-1, 1) translate(-39.748611, -104.000000) "></path>
            <path d="M103.248611,158.384237 C58.5135458,158.384237 22.2486106,123.295437 22.2486106,80" id="Rectangle-1-Copy-15" stroke="#E4CFAE" stroke-width="3" sketch:type="MSShapeGroup"></path>
            <path d="M88.2486106,158.384237 C43.5135458,158.384237 7.24861058,123.295437 7.24861058,80" id="Rectangle-1-Copy-21" stroke="#E4CFAE" stroke-width="3" sketch:type="MSShapeGroup" transform="translate(47.748611, 119.192119) scale(-1, 1) translate(-47.748611, -119.192119) "></path>
            <path d="M100,175.384237 C50.4316763,175.384237 10.2486106,140.295437 10.2486106,97" id="Rectangle-1-Copy-22" stroke="#E4CFAE" stroke-width="3" sketch:type="MSShapeGroup" transform="translate(55.124305, 136.192119) scale(-1, 1) translate(-55.124305, -136.192119) "></path>
            <path d="M103.248611,115.77 C82.2617901,115.77 65.2486106,95.7286544 65.2486106,71" id="Rectangle-1-Copy-17" stroke="#E4CFAE" stroke-width="3" sketch:type="MSShapeGroup"></path>
            <path d="M45.2486106,115.77 C24.2617901,115.77 7.24861058,95.7286544 7.24861058,71" id="Rectangle-1-Copy-19" stroke="#E4CFAE" stroke-width="3" sketch:type="MSShapeGroup" transform="translate(26.248611, 93.385000) scale(-1, 1) translate(-26.248611, -93.385000) "></path>
        </g>
        <g id="Group-Copy-6" sketch:type="MSLayerGroup" transform="translate(344.500000, 271.500000) rotate(33.000000) translate(-344.500000, -271.500000) translate(290.000000, 171.000000)">
            <path d="M56.4714114,88.4624182 L56.4714114,88.4624182 C64.3874026,88.4624182 70.8045814,78.1860193 70.8045814,65.509439 C70.8045814,52.8328586 64.3874026,42.5564598 56.4714114,42.5564598" id="Oval-1-Copy-17" fill="#9FAC9F" sketch:type="MSShapeGroup" transform="translate(63.637996, 65.509439) scale(-1, 1) rotate(-24.000000) translate(-63.637996, -65.509439) "></path>
            <path d="M29.833415,82.2274942 L29.833415,82.2274942 C37.7494062,82.2274942 44.166585,71.9510954 44.166585,59.274515 C44.166585,46.5979346 37.7494062,36.3215358 29.833415,36.3215358" id="Oval-1-Copy-19" fill="#9FAC9F" sketch:type="MSShapeGroup" transform="translate(37.000000, 59.274515) rotate(-61.000000) translate(-37.000000, -59.274515) "></path>
            <g id="Group" transform="translate(0.000000, 14.000000)" sketch:type="MSShapeGroup">
                <path d="M17.7980355,57.0665565 L17.7980355,57.0665565 C25.7140268,57.0665565 32.1312056,46.7901577 32.1312056,34.1135773 C32.1312056,21.436997 25.7140268,11.1605981 17.7980355,11.1605981" id="Oval-1-Copy-5" fill="#9FAC9F" transform="translate(24.964621, 34.113577) rotate(-31.000000) translate(-24.964621, -34.113577) "></path>
                <path d="M16.8829723,74.4624182 L16.8829723,74.4624182 C24.7989635,74.4624182 31.2161423,64.1860193 31.2161423,51.509439 C31.2161423,38.8328586 24.7989635,28.5564598 16.8829723,28.5564598" id="Oval-1-Copy-6" fill="#9FAC9F" transform="translate(24.049557, 51.509439) rotate(-61.000000) translate(-24.049557, -51.509439) "></path>
                <path d="M44.3422452,67.6649768 L44.3422452,67.6649768 C52.2582364,67.6649768 58.6754152,57.388578 58.6754152,44.7119976 C58.6754152,32.0354172 52.2582364,21.7590184 44.3422452,21.7590184" id="Oval-1-Copy-10" fill="#8C918C" transform="translate(51.508830, 44.711998) rotate(-41.000000) translate(-51.508830, -44.711998) "></path>
                <path d="M16.8829723,74.4624182 L16.8829723,74.4624182 C24.7989635,74.4624182 31.2161423,64.1860193 31.2161423,51.509439 C31.2161423,38.8328586 24.7989635,28.5564598 16.8829723,28.5564598" id="Oval-1-Copy-14" stroke="#8C918C" fill="#9FAC9F" transform="translate(24.049557, 51.509439) rotate(-61.000000) translate(-24.049557, -51.509439) "></path>
                <path d="M16.8829723,74.4624182 L16.8829723,74.4624182 C24.7989635,74.4624182 31.2161423,64.1860193 31.2161423,51.509439 C31.2161423,38.8328586 24.7989635,28.5564598 16.8829723,28.5564598" id="Oval-1-Copy-15" fill="#9FAC9F" transform="translate(24.049557, 51.509439) rotate(-61.000000) translate(-24.049557, -51.509439) "></path>
                <path d="M16.8829723,74.4624182 L16.8829723,74.4624182 C24.7989635,74.4624182 31.2161423,64.1860193 31.2161423,51.509439 C31.2161423,38.8328586 24.7989635,28.5564598 16.8829723,28.5564598" id="Oval-1-Copy-16" fill="#9FAC9F" transform="translate(24.049557, 51.509439) rotate(-61.000000) translate(-24.049557, -51.509439) "></path>
                <path d="M32.9507853,45.6404407 L32.9507853,45.6404407 C40.8667765,45.6404407 47.2839553,35.3640419 47.2839553,22.6874615 C47.2839553,10.0108811 40.8667765,-0.265517733 32.9507853,-0.265517733" id="Oval-1-Copy-11" fill="#9FAC9F" transform="translate(40.117370, 22.687461) rotate(-37.000000) translate(-40.117370, -22.687461) "></path>
                <path d="M31.5925196,61.3450405 L31.5925196,61.3450405 C39.5085108,61.3450405 45.9256897,51.0686416 45.9256897,38.3920613 C45.9256897,25.7154809 39.5085108,15.439082 31.5925196,15.439082" id="Oval-1-Copy-12" fill="#9FAC9F" transform="translate(38.759105, 38.392061) rotate(-43.000000) translate(-38.759105, -38.392061) "></path>
                <path d="M17.7980355,63.0363023 L17.7980355,63.0363023 C25.7140268,63.0363023 32.1312056,52.7599035 32.1312056,40.0833231 C32.1312056,27.4067427 25.7140268,17.1303439 17.7980355,17.1303439" id="Oval-1-Copy-13" fill="#8C918C" transform="translate(24.964621, 40.083323) rotate(-61.000000) translate(-24.964621, -40.083323) "></path>
            </g>
            <g id="Group-Copy" transform="translate(73.000000, 48.500000) scale(-1, 1) translate(-73.000000, -48.500000) translate(37.000000, 14.000000)" sketch:type="MSShapeGroup">
                <path d="M17.7980355,57.0665565 L17.7980355,57.0665565 C25.7140268,57.0665565 32.1312056,46.7901577 32.1312056,34.1135773 C32.1312056,21.436997 25.7140268,11.1605981 17.7980355,11.1605981" id="Oval-1-Copy-5" fill="#8C918C" transform="translate(24.964621, 34.113577) rotate(-31.000000) translate(-24.964621, -34.113577) "></path>
                <path d="M16.8829723,74.4624182 L16.8829723,74.4624182 C24.7989635,74.4624182 31.2161423,64.1860193 31.2161423,51.509439 C31.2161423,38.8328586 24.7989635,28.5564598 16.8829723,28.5564598" id="Oval-1-Copy-6" stroke="#8C918C" fill="#9FAC9F" transform="translate(24.049557, 51.509439) rotate(-61.000000) translate(-24.049557, -51.509439) "></path>
                <path d="M44.3422452,67.6649768 L44.3422452,67.6649768 C52.2582364,67.6649768 58.6754152,57.388578 58.6754152,44.7119976 C58.6754152,32.0354172 52.2582364,21.7590184 44.3422452,21.7590184" id="Oval-1-Copy-10" fill="#8C918C" transform="translate(51.508830, 44.711998) rotate(-41.000000) translate(-51.508830, -44.711998) "></path>
                <path d="M16.8829723,74.4624182 L16.8829723,74.4624182 C24.7989635,74.4624182 31.2161423,64.1860193 31.2161423,51.509439 C31.2161423,38.8328586 24.7989635,28.5564598 16.8829723,28.5564598" id="Oval-1-Copy-14" fill="#9FAC9F" transform="translate(24.049557, 51.509439) rotate(-61.000000) translate(-24.049557, -51.509439) "></path>
                <path d="M16.8829723,74.4624182 L16.8829723,74.4624182 C24.7989635,74.4624182 31.2161423,64.1860193 31.2161423,51.509439 C31.2161423,38.8328586 24.7989635,28.5564598 16.8829723,28.5564598" id="Oval-1-Copy-15" fill="#9FAC9F" transform="translate(24.049557, 51.509439) rotate(-61.000000) translate(-24.049557, -51.509439) "></path>
                <path d="M16.8829723,74.4624182 L16.8829723,74.4624182 C24.7989635,74.4624182 31.2161423,64.1860193 31.2161423,51.509439 C31.2161423,38.8328586 24.7989635,28.5564598 16.8829723,28.5564598" id="Oval-1-Copy-16" fill="#9FAC9F" transform="translate(24.049557, 51.509439) rotate(-61.000000) translate(-24.049557, -51.509439) "></path>
                <path d="M32.9507853,45.6404407 L32.9507853,45.6404407 C40.8667765,45.6404407 47.2839553,35.3640419 47.2839553,22.6874615 C47.2839553,10.0108811 40.8667765,-0.265517733 32.9507853,-0.265517733" id="Oval-1-Copy-11" fill="#9FAC9F" transform="translate(40.117370, 22.687461) rotate(-37.000000) translate(-40.117370, -22.687461) "></path>
                <path d="M31.5925196,61.3450405 L31.5925196,61.3450405 C39.5085108,61.3450405 45.9256897,51.0686416 45.9256897,38.3920613 C45.9256897,25.7154809 39.5085108,15.439082 31.5925196,15.439082" id="Oval-1-Copy-12" fill="#9FAC9F" transform="translate(38.759105, 38.392061) rotate(-43.000000) translate(-38.759105, -38.392061) "></path>
                <path d="M17.7980355,63.0363023 L17.7980355,63.0363023 C25.7140268,63.0363023 32.1312056,52.7599035 32.1312056,40.0833231 C32.1312056,27.4067427 25.7140268,17.1303439 17.7980355,17.1303439" id="Oval-1-Copy-13" fill="#8C918C" transform="translate(24.964621, 40.083323) rotate(-61.000000) translate(-24.964621, -40.083323) "></path>
            </g>
            <rect id="Rectangle-2" fill="#F2EEC2" sketch:type="MSShapeGroup" x="7" y="71" width="97" height="130" rx="40"></rect>
            <path d="M45.936905,47.4357709 L45.936905,47.4357709 C53.8528962,47.4357709 60.270075,37.1593721 60.270075,24.4827917 C60.270075,11.8062114 53.8528962,1.52981252 45.936905,1.52981252" id="Oval-1-Copy-21" fill="#9FAC9F" sketch:type="MSShapeGroup" transform="translate(53.103490, 24.482792) scale(-1, 1) rotate(-28.000000) translate(-53.103490, -24.482792) "></path>
            <path d="M40.9785356,64.8316326 L40.9785356,64.8316326 C48.8945268,64.8316326 55.3117056,54.5552337 55.3117056,41.8786534 C55.3117056,29.202073 48.8945268,18.9256741 40.9785356,18.9256741" id="Oval-1-Copy-23" fill="#9FAC9F" sketch:type="MSShapeGroup" transform="translate(48.145121, 41.878653) rotate(-28.000000) translate(-48.145121, -41.878653) "></path>
            <path d="M103.248611,115.77 C82.2617901,115.77 65.2486106,95.7286544 65.2486106,71" id="Rectangle-1-Copy-7" stroke="#E4CFAE" stroke-width="3" sketch:type="MSShapeGroup"></path>
            <path d="M103.248611,136 C67.3501018,136 38.2486106,107.350321 38.2486106,72" id="Rectangle-1-Copy-8" stroke="#E4CFAE" stroke-width="3" sketch:type="MSShapeGroup"></path>
            <path d="M103.248611,158.384237 C58.5135458,158.384237 22.2486106,123.295437 22.2486106,80" id="Rectangle-1-Copy-10" stroke="#E4CFAE" stroke-width="3" sketch:type="MSShapeGroup"></path>
            <path d="M99,179.384237 C49.4316763,179.384237 9.24861058,144.295437 9.24861058,101" id="Rectangle-1-Copy-11" stroke="#E4CFAE" stroke-width="3" sketch:type="MSShapeGroup"></path>
            <path d="M99,179.384237 C49.4316763,179.384237 9.24861058,144.295437 9.24861058,101" id="Rectangle-1-Copy-12" stroke="#E4CFAE" stroke-width="3" sketch:type="MSShapeGroup"></path>
            <path d="M56.0177664,51.2137874 L56.0177664,51.2137874 C63.9337577,51.2137874 70.3509365,40.9373886 70.3509365,28.2608082 C70.3509365,15.5842279 63.9337577,5.30782902 56.0177664,5.30782902" id="Oval-1-Copy-20" fill="#8C918C" sketch:type="MSShapeGroup" transform="translate(63.184351, 28.260808) scale(-1, 1) rotate(-42.000000) translate(-63.184351, -28.260808) "></path>
            <path d="M34.5385817,50.6002101 L34.5385817,50.6002101 C42.454573,50.6002101 48.8717518,40.3238113 48.8717518,27.6472309 C48.8717518,14.9706505 42.454573,4.69425169 34.5385817,4.69425169" id="Oval-1-Copy-22" fill="#8C918C" sketch:type="MSShapeGroup" transform="translate(41.705167, 27.647231) rotate(-42.000000) translate(-41.705167, -27.647231) "></path>
            <path d="M103.248611,115.77 C82.2617901,115.77 65.2486106,95.7286544 65.2486106,71" id="Rectangle-1-Copy-9" stroke="#E4CFAE" stroke-width="3" sketch:type="MSShapeGroup"></path>
            <path d="M81.2486106,195 C41.4841086,195 9.24861058,169.036228 9.24861058,137" id="Rectangle-1-Copy-18" stroke="#E4CFAE" stroke-width="3" sketch:type="MSShapeGroup"></path>
            <path d="M102.248611,195 C60.8272543,195 27.2486106,169.036228 27.2486106,137" id="Rectangle-1-Copy-23" stroke="#E4CFAE" stroke-width="3" sketch:type="MSShapeGroup" transform="translate(64.748611, 166.000000) scale(-1, 1) translate(-64.748611, -166.000000) "></path>
            <path d="M103.248611,136 C67.3501018,136 38.2486106,107.350321 38.2486106,72" id="Rectangle-1-Copy-14" stroke="#E4CFAE" stroke-width="3" sketch:type="MSShapeGroup"></path>
            <path d="M72.2486106,136 C36.3501018,136 7.24861058,107.350321 7.24861058,72" id="Rectangle-1-Copy-20" stroke="#E4CFAE" stroke-width="3" sketch:type="MSShapeGroup" transform="translate(39.748611, 104.000000) scale(-1, 1) translate(-39.748611, -104.000000) "></path>
            <path d="M103.248611,158.384237 C58.5135458,158.384237 22.2486106,123.295437 22.2486106,80" id="Rectangle-1-Copy-15" stroke="#E4CFAE" stroke-width="3" sketch:type="MSShapeGroup"></path>
            <path d="M88.2486106,158.384237 C43.5135458,158.384237 7.24861058,123.295437 7.24861058,80" id="Rectangle-1-Copy-21" stroke="#E4CFAE" stroke-width="3" sketch:type="MSShapeGroup" transform="translate(47.748611, 119.192119) scale(-1, 1) translate(-47.748611, -119.192119) "></path>
            <path d="M100,175.384237 C50.4316763,175.384237 10.2486106,140.295437 10.2486106,97" id="Rectangle-1-Copy-22" stroke="#E4CFAE" stroke-width="3" sketch:type="MSShapeGroup" transform="translate(55.124305, 136.192119) scale(-1, 1) translate(-55.124305, -136.192119) "></path>
            <path d="M103.248611,115.77 C82.2617901,115.77 65.2486106,95.7286544 65.2486106,71" id="Rectangle-1-Copy-17" stroke="#E4CFAE" stroke-width="3" sketch:type="MSShapeGroup"></path>
            <path d="M45.2486106,115.77 C24.2617901,115.77 7.24861058,95.7286544 7.24861058,71" id="Rectangle-1-Copy-19" stroke="#E4CFAE" stroke-width="3" sketch:type="MSShapeGroup" transform="translate(26.248611, 93.385000) scale(-1, 1) translate(-26.248611, -93.385000) "></path>
        </g>
        <g id="Group-Copy-3" sketch:type="MSLayerGroup" transform="translate(106.500000, 426.500000) rotate(13.000000) translate(-106.500000, -426.500000) translate(52.000000, 326.000000)">
            <path d="M56.4714114,88.4624182 L56.4714114,88.4624182 C64.3874026,88.4624182 70.8045814,78.1860193 70.8045814,65.509439 C70.8045814,52.8328586 64.3874026,42.5564598 56.4714114,42.5564598" id="Oval-1-Copy-17" fill="#9FAC9F" sketch:type="MSShapeGroup" transform="translate(63.637996, 65.509439) scale(-1, 1) rotate(-24.000000) translate(-63.637996, -65.509439) "></path>
            <path d="M29.833415,82.2274942 L29.833415,82.2274942 C37.7494062,82.2274942 44.166585,71.9510954 44.166585,59.274515 C44.166585,46.5979346 37.7494062,36.3215358 29.833415,36.3215358" id="Oval-1-Copy-19" fill="#9FAC9F" sketch:type="MSShapeGroup" transform="translate(37.000000, 59.274515) rotate(-61.000000) translate(-37.000000, -59.274515) "></path>
            <g id="Group" transform="translate(0.000000, 14.000000)" sketch:type="MSShapeGroup">
                <path d="M17.7980355,57.0665565 L17.7980355,57.0665565 C25.7140268,57.0665565 32.1312056,46.7901577 32.1312056,34.1135773 C32.1312056,21.436997 25.7140268,11.1605981 17.7980355,11.1605981" id="Oval-1-Copy-5" fill="#9FAC9F" transform="translate(24.964621, 34.113577) rotate(-31.000000) translate(-24.964621, -34.113577) "></path>
                <path d="M16.8829723,74.4624182 L16.8829723,74.4624182 C24.7989635,74.4624182 31.2161423,64.1860193 31.2161423,51.509439 C31.2161423,38.8328586 24.7989635,28.5564598 16.8829723,28.5564598" id="Oval-1-Copy-6" fill="#9FAC9F" transform="translate(24.049557, 51.509439) rotate(-61.000000) translate(-24.049557, -51.509439) "></path>
                <path d="M44.3422452,67.6649768 L44.3422452,67.6649768 C52.2582364,67.6649768 58.6754152,57.388578 58.6754152,44.7119976 C58.6754152,32.0354172 52.2582364,21.7590184 44.3422452,21.7590184" id="Oval-1-Copy-10" fill="#8C918C" transform="translate(51.508830, 44.711998) rotate(-41.000000) translate(-51.508830, -44.711998) "></path>
                <path d="M16.8829723,74.4624182 L16.8829723,74.4624182 C24.7989635,74.4624182 31.2161423,64.1860193 31.2161423,51.509439 C31.2161423,38.8328586 24.7989635,28.5564598 16.8829723,28.5564598" id="Oval-1-Copy-14" stroke="#8C918C" fill="#9FAC9F" transform="translate(24.049557, 51.509439) rotate(-61.000000) translate(-24.049557, -51.509439) "></path>
                <path d="M16.8829723,74.4624182 L16.8829723,74.4624182 C24.7989635,74.4624182 31.2161423,64.1860193 31.2161423,51.509439 C31.2161423,38.8328586 24.7989635,28.5564598 16.8829723,28.5564598" id="Oval-1-Copy-15" fill="#9FAC9F" transform="translate(24.049557, 51.509439) rotate(-61.000000) translate(-24.049557, -51.509439) "></path>
                <path d="M16.8829723,74.4624182 L16.8829723,74.4624182 C24.7989635,74.4624182 31.2161423,64.1860193 31.2161423,51.509439 C31.2161423,38.8328586 24.7989635,28.5564598 16.8829723,28.5564598" id="Oval-1-Copy-16" fill="#9FAC9F" transform="translate(24.049557, 51.509439) rotate(-61.000000) translate(-24.049557, -51.509439) "></path>
                <path d="M32.9507853,45.6404407 L32.9507853,45.6404407 C40.8667765,45.6404407 47.2839553,35.3640419 47.2839553,22.6874615 C47.2839553,10.0108811 40.8667765,-0.265517733 32.9507853,-0.265517733" id="Oval-1-Copy-11" fill="#9FAC9F" transform="translate(40.117370, 22.687461) rotate(-37.000000) translate(-40.117370, -22.687461) "></path>
                <path d="M31.5925196,61.3450405 L31.5925196,61.3450405 C39.5085108,61.3450405 45.9256897,51.0686416 45.9256897,38.3920613 C45.9256897,25.7154809 39.5085108,15.439082 31.5925196,15.439082" id="Oval-1-Copy-12" fill="#9FAC9F" transform="translate(38.759105, 38.392061) rotate(-43.000000) translate(-38.759105, -38.392061) "></path>
                <path d="M17.7980355,63.0363023 L17.7980355,63.0363023 C25.7140268,63.0363023 32.1312056,52.7599035 32.1312056,40.0833231 C32.1312056,27.4067427 25.7140268,17.1303439 17.7980355,17.1303439" id="Oval-1-Copy-13" fill="#8C918C" transform="translate(24.964621, 40.083323) rotate(-61.000000) translate(-24.964621, -40.083323) "></path>
            </g>
            <g id="Group-Copy" transform="translate(73.000000, 48.500000) scale(-1, 1) translate(-73.000000, -48.500000) translate(37.000000, 14.000000)" sketch:type="MSShapeGroup">
                <path d="M17.7980355,57.0665565 L17.7980355,57.0665565 C25.7140268,57.0665565 32.1312056,46.7901577 32.1312056,34.1135773 C32.1312056,21.436997 25.7140268,11.1605981 17.7980355,11.1605981" id="Oval-1-Copy-5" fill="#8C918C" transform="translate(24.964621, 34.113577) rotate(-31.000000) translate(-24.964621, -34.113577) "></path>
                <path d="M16.8829723,74.4624182 L16.8829723,74.4624182 C24.7989635,74.4624182 31.2161423,64.1860193 31.2161423,51.509439 C31.2161423,38.8328586 24.7989635,28.5564598 16.8829723,28.5564598" id="Oval-1-Copy-6" stroke="#8C918C" fill="#9FAC9F" transform="translate(24.049557, 51.509439) rotate(-61.000000) translate(-24.049557, -51.509439) "></path>
                <path d="M44.3422452,67.6649768 L44.3422452,67.6649768 C52.2582364,67.6649768 58.6754152,57.388578 58.6754152,44.7119976 C58.6754152,32.0354172 52.2582364,21.7590184 44.3422452,21.7590184" id="Oval-1-Copy-10" fill="#8C918C" transform="translate(51.508830, 44.711998) rotate(-41.000000) translate(-51.508830, -44.711998) "></path>
                <path d="M16.8829723,74.4624182 L16.8829723,74.4624182 C24.7989635,74.4624182 31.2161423,64.1860193 31.2161423,51.509439 C31.2161423,38.8328586 24.7989635,28.5564598 16.8829723,28.5564598" id="Oval-1-Copy-14" fill="#9FAC9F" transform="translate(24.049557, 51.509439) rotate(-61.000000) translate(-24.049557, -51.509439) "></path>
                <path d="M16.8829723,74.4624182 L16.8829723,74.4624182 C24.7989635,74.4624182 31.2161423,64.1860193 31.2161423,51.509439 C31.2161423,38.8328586 24.7989635,28.5564598 16.8829723,28.5564598" id="Oval-1-Copy-15" fill="#9FAC9F" transform="translate(24.049557, 51.509439) rotate(-61.000000) translate(-24.049557, -51.509439) "></path>
                <path d="M16.8829723,74.4624182 L16.8829723,74.4624182 C24.7989635,74.4624182 31.2161423,64.1860193 31.2161423,51.509439 C31.2161423,38.8328586 24.7989635,28.5564598 16.8829723,28.5564598" id="Oval-1-Copy-16" fill="#9FAC9F" transform="translate(24.049557, 51.509439) rotate(-61.000000) translate(-24.049557, -51.509439) "></path>
                <path d="M32.9507853,45.6404407 L32.9507853,45.6404407 C40.8667765,45.6404407 47.2839553,35.3640419 47.2839553,22.6874615 C47.2839553,10.0108811 40.8667765,-0.265517733 32.9507853,-0.265517733" id="Oval-1-Copy-11" fill="#9FAC9F" transform="translate(40.117370, 22.687461) rotate(-37.000000) translate(-40.117370, -22.687461) "></path>
                <path d="M31.5925196,61.3450405 L31.5925196,61.3450405 C39.5085108,61.3450405 45.9256897,51.0686416 45.9256897,38.3920613 C45.9256897,25.7154809 39.5085108,15.439082 31.5925196,15.439082" id="Oval-1-Copy-12" fill="#9FAC9F" transform="translate(38.759105, 38.392061) rotate(-43.000000) translate(-38.759105, -38.392061) "></path>
                <path d="M17.7980355,63.0363023 L17.7980355,63.0363023 C25.7140268,63.0363023 32.1312056,52.7599035 32.1312056,40.0833231 C32.1312056,27.4067427 25.7140268,17.1303439 17.7980355,17.1303439" id="Oval-1-Copy-13" fill="#8C918C" transform="translate(24.964621, 40.083323) rotate(-61.000000) translate(-24.964621, -40.083323) "></path>
            </g>
            <rect id="Rectangle-2" fill="#F2EEC2" sketch:type="MSShapeGroup" x="7" y="71" width="97" height="130" rx="40"></rect>
            <path d="M45.936905,47.4357709 L45.936905,47.4357709 C53.8528962,47.4357709 60.270075,37.1593721 60.270075,24.4827917 C60.270075,11.8062114 53.8528962,1.52981252 45.936905,1.52981252" id="Oval-1-Copy-21" fill="#9FAC9F" sketch:type="MSShapeGroup" transform="translate(53.103490, 24.482792) scale(-1, 1) rotate(-28.000000) translate(-53.103490, -24.482792) "></path>
            <path d="M40.9785356,64.8316326 L40.9785356,64.8316326 C48.8945268,64.8316326 55.3117056,54.5552337 55.3117056,41.8786534 C55.3117056,29.202073 48.8945268,18.9256741 40.9785356,18.9256741" id="Oval-1-Copy-23" fill="#9FAC9F" sketch:type="MSShapeGroup" transform="translate(48.145121, 41.878653) rotate(-28.000000) translate(-48.145121, -41.878653) "></path>
            <path d="M103.248611,115.77 C82.2617901,115.77 65.2486106,95.7286544 65.2486106,71" id="Rectangle-1-Copy-7" stroke="#E4CFAE" stroke-width="3" sketch:type="MSShapeGroup"></path>
            <path d="M103.248611,136 C67.3501018,136 38.2486106,107.350321 38.2486106,72" id="Rectangle-1-Copy-8" stroke="#E4CFAE" stroke-width="3" sketch:type="MSShapeGroup"></path>
            <path d="M103.248611,158.384237 C58.5135458,158.384237 22.2486106,123.295437 22.2486106,80" id="Rectangle-1-Copy-10" stroke="#E4CFAE" stroke-width="3" sketch:type="MSShapeGroup"></path>
            <path d="M99,179.384237 C49.4316763,179.384237 9.24861058,144.295437 9.24861058,101" id="Rectangle-1-Copy-11" stroke="#E4CFAE" stroke-width="3" sketch:type="MSShapeGroup"></path>
            <path d="M99,179.384237 C49.4316763,179.384237 9.24861058,144.295437 9.24861058,101" id="Rectangle-1-Copy-12" stroke="#E4CFAE" stroke-width="3" sketch:type="MSShapeGroup"></path>
            <path d="M56.0177664,51.2137874 L56.0177664,51.2137874 C63.9337577,51.2137874 70.3509365,40.9373886 70.3509365,28.2608082 C70.3509365,15.5842279 63.9337577,5.30782902 56.0177664,5.30782902" id="Oval-1-Copy-20" fill="#8C918C" sketch:type="MSShapeGroup" transform="translate(63.184351, 28.260808) scale(-1, 1) rotate(-42.000000) translate(-63.184351, -28.260808) "></path>
            <path d="M34.5385817,50.6002101 L34.5385817,50.6002101 C42.454573,50.6002101 48.8717518,40.3238113 48.8717518,27.6472309 C48.8717518,14.9706505 42.454573,4.69425169 34.5385817,4.69425169" id="Oval-1-Copy-22" fill="#8C918C" sketch:type="MSShapeGroup" transform="translate(41.705167, 27.647231) rotate(-42.000000) translate(-41.705167, -27.647231) "></path>
            <path d="M103.248611,115.77 C82.2617901,115.77 65.2486106,95.7286544 65.2486106,71" id="Rectangle-1-Copy-9" stroke="#E4CFAE" stroke-width="3" sketch:type="MSShapeGroup"></path>
            <path d="M81.2486106,195 C41.4841086,195 9.24861058,169.036228 9.24861058,137" id="Rectangle-1-Copy-18" stroke="#E4CFAE" stroke-width="3" sketch:type="MSShapeGroup"></path>
            <path d="M102.248611,195 C60.8272543,195 27.2486106,169.036228 27.2486106,137" id="Rectangle-1-Copy-23" stroke="#E4CFAE" stroke-width="3" sketch:type="MSShapeGroup" transform="translate(64.748611, 166.000000) scale(-1, 1) translate(-64.748611, -166.000000) "></path>
            <path d="M103.248611,136 C67.3501018,136 38.2486106,107.350321 38.2486106,72" id="Rectangle-1-Copy-14" stroke="#E4CFAE" stroke-width="3" sketch:type="MSShapeGroup"></path>
            <path d="M72.2486106,136 C36.3501018,136 7.24861058,107.350321 7.24861058,72" id="Rectangle-1-Copy-20" stroke="#E4CFAE" stroke-width="3" sketch:type="MSShapeGroup" transform="translate(39.748611, 104.000000) scale(-1, 1) translate(-39.748611, -104.000000) "></path>
            <path d="M103.248611,158.384237 C58.5135458,158.384237 22.2486106,123.295437 22.2486106,80" id="Rectangle-1-Copy-15" stroke="#E4CFAE" stroke-width="3" sketch:type="MSShapeGroup"></path>
            <path d="M88.2486106,158.384237 C43.5135458,158.384237 7.24861058,123.295437 7.24861058,80" id="Rectangle-1-Copy-21" stroke="#E4CFAE" stroke-width="3" sketch:type="MSShapeGroup" transform="translate(47.748611, 119.192119) scale(-1, 1) translate(-47.748611, -119.192119) "></path>
            <path d="M100,175.384237 C50.4316763,175.384237 10.2486106,140.295437 10.2486106,97" id="Rectangle-1-Copy-22" stroke="#E4CFAE" stroke-width="3" sketch:type="MSShapeGroup" transform="translate(55.124305, 136.192119) scale(-1, 1) translate(-55.124305, -136.192119) "></path>
            <path d="M103.248611,115.77 C82.2617901,115.77 65.2486106,95.7286544 65.2486106,71" id="Rectangle-1-Copy-17" stroke="#E4CFAE" stroke-width="3" sketch:type="MSShapeGroup"></path>
            <path d="M45.2486106,115.77 C24.2617901,115.77 7.24861058,95.7286544 7.24861058,71" id="Rectangle-1-Copy-19" stroke="#E4CFAE" stroke-width="3" sketch:type="MSShapeGroup" transform="translate(26.248611, 93.385000) scale(-1, 1) translate(-26.248611, -93.385000) "></path>
        </g>
        <g id="Group-Copy-4" sketch:type="MSLayerGroup" transform="translate(84.500000, 93.500000) rotate(-30.000000) translate(-84.500000, -93.500000) translate(30.000000, -7.000000)">
            <path d="M56.4714114,88.4624182 L56.4714114,88.4624182 C64.3874026,88.4624182 70.8045814,78.1860193 70.8045814,65.509439 C70.8045814,52.8328586 64.3874026,42.5564598 56.4714114,42.5564598" id="Oval-1-Copy-17" fill="#9FAC9F" sketch:type="MSShapeGroup" transform="translate(63.637996, 65.509439) scale(-1, 1) rotate(-24.000000) translate(-63.637996, -65.509439) "></path>
            <path d="M29.833415,82.2274942 L29.833415,82.2274942 C37.7494062,82.2274942 44.166585,71.9510954 44.166585,59.274515 C44.166585,46.5979346 37.7494062,36.3215358 29.833415,36.3215358" id="Oval-1-Copy-19" fill="#9FAC9F" sketch:type="MSShapeGroup" transform="translate(37.000000, 59.274515) rotate(-61.000000) translate(-37.000000, -59.274515) "></path>
            <g id="Group" transform="translate(0.000000, 14.000000)" sketch:type="MSShapeGroup">
                <path d="M17.7980355,57.0665565 L17.7980355,57.0665565 C25.7140268,57.0665565 32.1312056,46.7901577 32.1312056,34.1135773 C32.1312056,21.436997 25.7140268,11.1605981 17.7980355,11.1605981" id="Oval-1-Copy-5" fill="#9FAC9F" transform="translate(24.964621, 34.113577) rotate(-31.000000) translate(-24.964621, -34.113577) "></path>
                <path d="M16.8829723,74.4624182 L16.8829723,74.4624182 C24.7989635,74.4624182 31.2161423,64.1860193 31.2161423,51.509439 C31.2161423,38.8328586 24.7989635,28.5564598 16.8829723,28.5564598" id="Oval-1-Copy-6" fill="#9FAC9F" transform="translate(24.049557, 51.509439) rotate(-61.000000) translate(-24.049557, -51.509439) "></path>
                <path d="M44.3422452,67.6649768 L44.3422452,67.6649768 C52.2582364,67.6649768 58.6754152,57.388578 58.6754152,44.7119976 C58.6754152,32.0354172 52.2582364,21.7590184 44.3422452,21.7590184" id="Oval-1-Copy-10" fill="#8C918C" transform="translate(51.508830, 44.711998) rotate(-41.000000) translate(-51.508830, -44.711998) "></path>
                <path d="M16.8829723,74.4624182 L16.8829723,74.4624182 C24.7989635,74.4624182 31.2161423,64.1860193 31.2161423,51.509439 C31.2161423,38.8328586 24.7989635,28.5564598 16.8829723,28.5564598" id="Oval-1-Copy-14" stroke="#8C918C" fill="#9FAC9F" transform="translate(24.049557, 51.509439) rotate(-61.000000) translate(-24.049557, -51.509439) "></path>
                <path d="M16.8829723,74.4624182 L16.8829723,74.4624182 C24.7989635,74.4624182 31.2161423,64.1860193 31.2161423,51.509439 C31.2161423,38.8328586 24.7989635,28.5564598 16.8829723,28.5564598" id="Oval-1-Copy-15" fill="#9FAC9F" transform="translate(24.049557, 51.509439) rotate(-61.000000) translate(-24.049557, -51.509439) "></path>
                <path d="M16.8829723,74.4624182 L16.8829723,74.4624182 C24.7989635,74.4624182 31.2161423,64.1860193 31.2161423,51.509439 C31.2161423,38.8328586 24.7989635,28.5564598 16.8829723,28.5564598" id="Oval-1-Copy-16" fill="#9FAC9F" transform="translate(24.049557, 51.509439) rotate(-61.000000) translate(-24.049557, -51.509439) "></path>
                <path d="M32.9507853,45.6404407 L32.9507853,45.6404407 C40.8667765,45.6404407 47.2839553,35.3640419 47.2839553,22.6874615 C47.2839553,10.0108811 40.8667765,-0.265517733 32.9507853,-0.265517733" id="Oval-1-Copy-11" fill="#9FAC9F" transform="translate(40.117370, 22.687461) rotate(-37.000000) translate(-40.117370, -22.687461) "></path>
                <path d="M31.5925196,61.3450405 L31.5925196,61.3450405 C39.5085108,61.3450405 45.9256897,51.0686416 45.9256897,38.3920613 C45.9256897,25.7154809 39.5085108,15.439082 31.5925196,15.439082" id="Oval-1-Copy-12" fill="#9FAC9F" transform="translate(38.759105, 38.392061) rotate(-43.000000) translate(-38.759105, -38.392061) "></path>
                <path d="M17.7980355,63.0363023 L17.7980355,63.0363023 C25.7140268,63.0363023 32.1312056,52.7599035 32.1312056,40.0833231 C32.1312056,27.4067427 25.7140268,17.1303439 17.7980355,17.1303439" id="Oval-1-Copy-13" fill="#8C918C" transform="translate(24.964621, 40.083323) rotate(-61.000000) translate(-24.964621, -40.083323) "></path>
            </g>
            <g id="Group-Copy" transform="translate(73.000000, 48.500000) scale(-1, 1) translate(-73.000000, -48.500000) translate(37.000000, 14.000000)" sketch:type="MSShapeGroup">
                <path d="M17.7980355,57.0665565 L17.7980355,57.0665565 C25.7140268,57.0665565 32.1312056,46.7901577 32.1312056,34.1135773 C32.1312056,21.436997 25.7140268,11.1605981 17.7980355,11.1605981" id="Oval-1-Copy-5" fill="#8C918C" transform="translate(24.964621, 34.113577) rotate(-31.000000) translate(-24.964621, -34.113577) "></path>
                <path d="M16.8829723,74.4624182 L16.8829723,74.4624182 C24.7989635,74.4624182 31.2161423,64.1860193 31.2161423,51.509439 C31.2161423,38.8328586 24.7989635,28.5564598 16.8829723,28.5564598" id="Oval-1-Copy-6" stroke="#8C918C" fill="#9FAC9F" transform="translate(24.049557, 51.509439) rotate(-61.000000) translate(-24.049557, -51.509439) "></path>
                <path d="M44.3422452,67.6649768 L44.3422452,67.6649768 C52.2582364,67.6649768 58.6754152,57.388578 58.6754152,44.7119976 C58.6754152,32.0354172 52.2582364,21.7590184 44.3422452,21.7590184" id="Oval-1-Copy-10" fill="#8C918C" transform="translate(51.508830, 44.711998) rotate(-41.000000) translate(-51.508830, -44.711998) "></path>
                <path d="M16.8829723,74.4624182 L16.8829723,74.4624182 C24.7989635,74.4624182 31.2161423,64.1860193 31.2161423,51.509439 C31.2161423,38.8328586 24.7989635,28.5564598 16.8829723,28.5564598" id="Oval-1-Copy-14" fill="#9FAC9F" transform="translate(24.049557, 51.509439) rotate(-61.000000) translate(-24.049557, -51.509439) "></path>
                <path d="M16.8829723,74.4624182 L16.8829723,74.4624182 C24.7989635,74.4624182 31.2161423,64.1860193 31.2161423,51.509439 C31.2161423,38.8328586 24.7989635,28.5564598 16.8829723,28.5564598" id="Oval-1-Copy-15" fill="#9FAC9F" transform="translate(24.049557, 51.509439) rotate(-61.000000) translate(-24.049557, -51.509439) "></path>
                <path d="M16.8829723,74.4624182 L16.8829723,74.4624182 C24.7989635,74.4624182 31.2161423,64.1860193 31.2161423,51.509439 C31.2161423,38.8328586 24.7989635,28.5564598 16.8829723,28.5564598" id="Oval-1-Copy-16" fill="#9FAC9F" transform="translate(24.049557, 51.509439) rotate(-61.000000) translate(-24.049557, -51.509439) "></path>
                <path d="M32.9507853,45.6404407 L32.9507853,45.6404407 C40.8667765,45.6404407 47.2839553,35.3640419 47.2839553,22.6874615 C47.2839553,10.0108811 40.8667765,-0.265517733 32.9507853,-0.265517733" id="Oval-1-Copy-11" fill="#9FAC9F" transform="translate(40.117370, 22.687461) rotate(-37.000000) translate(-40.117370, -22.687461) "></path>
                <path d="M31.5925196,61.3450405 L31.5925196,61.3450405 C39.5085108,61.3450405 45.9256897,51.0686416 45.9256897,38.3920613 C45.9256897,25.7154809 39.5085108,15.439082 31.5925196,15.439082" id="Oval-1-Copy-12" fill="#9FAC9F" transform="translate(38.759105, 38.392061) rotate(-43.000000) translate(-38.759105, -38.392061) "></path>
                <path d="M17.7980355,63.0363023 L17.7980355,63.0363023 C25.7140268,63.0363023 32.1312056,52.7599035 32.1312056,40.0833231 C32.1312056,27.4067427 25.7140268,17.1303439 17.7980355,17.1303439" id="Oval-1-Copy-13" fill="#8C918C" transform="translate(24.964621, 40.083323) rotate(-61.000000) translate(-24.964621, -40.083323) "></path>
            </g>
            <rect id="Rectangle-2" fill="#F2EEC2" sketch:type="MSShapeGroup" x="7" y="71" width="97" height="130" rx="40"></rect>
            <path d="M45.936905,47.4357709 L45.936905,47.4357709 C53.8528962,47.4357709 60.270075,37.1593721 60.270075,24.4827917 C60.270075,11.8062114 53.8528962,1.52981252 45.936905,1.52981252" id="Oval-1-Copy-21" fill="#9FAC9F" sketch:type="MSShapeGroup" transform="translate(53.103490, 24.482792) scale(-1, 1) rotate(-28.000000) translate(-53.103490, -24.482792) "></path>
            <path d="M40.9785356,64.8316326 L40.9785356,64.8316326 C48.8945268,64.8316326 55.3117056,54.5552337 55.3117056,41.8786534 C55.3117056,29.202073 48.8945268,18.9256741 40.9785356,18.9256741" id="Oval-1-Copy-23" fill="#9FAC9F" sketch:type="MSShapeGroup" transform="translate(48.145121, 41.878653) rotate(-28.000000) translate(-48.145121, -41.878653) "></path>
            <path d="M103.248611,115.77 C82.2617901,115.77 65.2486106,95.7286544 65.2486106,71" id="Rectangle-1-Copy-7" stroke="#E4CFAE" stroke-width="3" sketch:type="MSShapeGroup"></path>
            <path d="M103.248611,136 C67.3501018,136 38.2486106,107.350321 38.2486106,72" id="Rectangle-1-Copy-8" stroke="#E4CFAE" stroke-width="3" sketch:type="MSShapeGroup"></path>
            <path d="M103.248611,158.384237 C58.5135458,158.384237 22.2486106,123.295437 22.2486106,80" id="Rectangle-1-Copy-10" stroke="#E4CFAE" stroke-width="3" sketch:type="MSShapeGroup"></path>
            <path d="M99,179.384237 C49.4316763,179.384237 9.24861058,144.295437 9.24861058,101" id="Rectangle-1-Copy-11" stroke="#E4CFAE" stroke-width="3" sketch:type="MSShapeGroup"></path>
            <path d="M99,179.384237 C49.4316763,179.384237 9.24861058,144.295437 9.24861058,101" id="Rectangle-1-Copy-12" stroke="#E4CFAE" stroke-width="3" sketch:type="MSShapeGroup"></path>
            <path d="M56.0177664,51.2137874 L56.0177664,51.2137874 C63.9337577,51.2137874 70.3509365,40.9373886 70.3509365,28.2608082 C70.3509365,15.5842279 63.9337577,5.30782902 56.0177664,5.30782902" id="Oval-1-Copy-20" fill="#8C918C" sketch:type="MSShapeGroup" transform="translate(63.184351, 28.260808) scale(-1, 1) rotate(-42.000000) translate(-63.184351, -28.260808) "></path>
            <path d="M34.5385817,50.6002101 L34.5385817,50.6002101 C42.454573,50.6002101 48.8717518,40.3238113 48.8717518,27.6472309 C48.8717518,14.9706505 42.454573,4.69425169 34.5385817,4.69425169" id="Oval-1-Copy-22" fill="#8C918C" sketch:type="MSShapeGroup" transform="translate(41.705167, 27.647231) rotate(-42.000000) translate(-41.705167, -27.647231) "></path>
            <path d="M103.248611,115.77 C82.2617901,115.77 65.2486106,95.7286544 65.2486106,71" id="Rectangle-1-Copy-9" stroke="#E4CFAE" stroke-width="3" sketch:type="MSShapeGroup"></path>
            <path d="M81.2486106,195 C41.4841086,195 9.24861058,169.036228 9.24861058,137" id="Rectangle-1-Copy-18" stroke="#E4CFAE" stroke-width="3" sketch:type="MSShapeGroup"></path>
            <path d="M102.248611,195 C60.8272543,195 27.2486106,169.036228 27.2486106,137" id="Rectangle-1-Copy-23" stroke="#E4CFAE" stroke-width="3" sketch:type="MSShapeGroup" transform="translate(64.748611, 166.000000) scale(-1, 1) translate(-64.748611, -166.000000) "></path>
            <path d="M103.248611,136 C67.3501018,136 38.2486106,107.350321 38.2486106,72" id="Rectangle-1-Copy-14" stroke="#E4CFAE" stroke-width="3" sketch:type="MSShapeGroup"></path>
            <path d="M72.2486106,136 C36.3501018,136 7.24861058,107.350321 7.24861058,72" id="Rectangle-1-Copy-20" stroke="#E4CFAE" stroke-width="3" sketch:type="MSShapeGroup" transform="translate(39.748611, 104.000000) scale(-1, 1) translate(-39.748611, -104.000000) "></path>
            <path d="M103.248611,158.384237 C58.5135458,158.384237 22.2486106,123.295437 22.2486106,80" id="Rectangle-1-Copy-15" stroke="#E4CFAE" stroke-width="3" sketch:type="MSShapeGroup"></path>
            <path d="M88.2486106,158.384237 C43.5135458,158.384237 7.24861058,123.295437 7.24861058,80" id="Rectangle-1-Copy-21" stroke="#E4CFAE" stroke-width="3" sketch:type="MSShapeGroup" transform="translate(47.748611, 119.192119) scale(-1, 1) translate(-47.748611, -119.192119) "></path>
            <path d="M100,175.384237 C50.4316763,175.384237 10.2486106,140.295437 10.2486106,97" id="Rectangle-1-Copy-22" stroke="#E4CFAE" stroke-width="3" sketch:type="MSShapeGroup" transform="translate(55.124305, 136.192119) scale(-1, 1) translate(-55.124305, -136.192119) "></path>
            <path d="M103.248611,115.77 C82.2617901,115.77 65.2486106,95.7286544 65.2486106,71" id="Rectangle-1-Copy-17" stroke="#E4CFAE" stroke-width="3" sketch:type="MSShapeGroup"></path>
            <path d="M45.2486106,115.77 C24.2617901,115.77 7.24861058,95.7286544 7.24861058,71" id="Rectangle-1-Copy-19" stroke="#E4CFAE" stroke-width="3" sketch:type="MSShapeGroup" transform="translate(26.248611, 93.385000) scale(-1, 1) translate(-26.248611, -93.385000) "></path>
        </g>
        <g id="Group-Copy-5" sketch:type="MSLayerGroup" transform="translate(569.500000, 96.500000) rotate(15.000000) translate(-569.500000, -96.500000) translate(515.000000, -4.000000)">
            <path d="M56.4714114,88.4624182 L56.4714114,88.4624182 C64.3874026,88.4624182 70.8045814,78.1860193 70.8045814,65.509439 C70.8045814,52.8328586 64.3874026,42.5564598 56.4714114,42.5564598" id="Oval-1-Copy-17" fill="#9FAC9F" sketch:type="MSShapeGroup" transform="translate(63.637996, 65.509439) scale(-1, 1) rotate(-24.000000) translate(-63.637996, -65.509439) "></path>
            <path d="M29.833415,82.2274942 L29.833415,82.2274942 C37.7494062,82.2274942 44.166585,71.9510954 44.166585,59.274515 C44.166585,46.5979346 37.7494062,36.3215358 29.833415,36.3215358" id="Oval-1-Copy-19" fill="#9FAC9F" sketch:type="MSShapeGroup" transform="translate(37.000000, 59.274515) rotate(-61.000000) translate(-37.000000, -59.274515) "></path>
            <g id="Group" transform="translate(0.000000, 14.000000)" sketch:type="MSShapeGroup">
                <path d="M17.7980355,57.0665565 L17.7980355,57.0665565 C25.7140268,57.0665565 32.1312056,46.7901577 32.1312056,34.1135773 C32.1312056,21.436997 25.7140268,11.1605981 17.7980355,11.1605981" id="Oval-1-Copy-5" fill="#9FAC9F" transform="translate(24.964621, 34.113577) rotate(-31.000000) translate(-24.964621, -34.113577) "></path>
                <path d="M16.8829723,74.4624182 L16.8829723,74.4624182 C24.7989635,74.4624182 31.2161423,64.1860193 31.2161423,51.509439 C31.2161423,38.8328586 24.7989635,28.5564598 16.8829723,28.5564598" id="Oval-1-Copy-6" fill="#9FAC9F" transform="translate(24.049557, 51.509439) rotate(-61.000000) translate(-24.049557, -51.509439) "></path>
                <path d="M44.3422452,67.6649768 L44.3422452,67.6649768 C52.2582364,67.6649768 58.6754152,57.388578 58.6754152,44.7119976 C58.6754152,32.0354172 52.2582364,21.7590184 44.3422452,21.7590184" id="Oval-1-Copy-10" fill="#8C918C" transform="translate(51.508830, 44.711998) rotate(-41.000000) translate(-51.508830, -44.711998) "></path>
                <path d="M16.8829723,74.4624182 L16.8829723,74.4624182 C24.7989635,74.4624182 31.2161423,64.1860193 31.2161423,51.509439 C31.2161423,38.8328586 24.7989635,28.5564598 16.8829723,28.5564598" id="Oval-1-Copy-14" stroke="#8C918C" fill="#9FAC9F" transform="translate(24.049557, 51.509439) rotate(-61.000000) translate(-24.049557, -51.509439) "></path>
                <path d="M16.8829723,74.4624182 L16.8829723,74.4624182 C24.7989635,74.4624182 31.2161423,64.1860193 31.2161423,51.509439 C31.2161423,38.8328586 24.7989635,28.5564598 16.8829723,28.5564598" id="Oval-1-Copy-15" fill="#9FAC9F" transform="translate(24.049557, 51.509439) rotate(-61.000000) translate(-24.049557, -51.509439) "></path>
                <path d="M16.8829723,74.4624182 L16.8829723,74.4624182 C24.7989635,74.4624182 31.2161423,64.1860193 31.2161423,51.509439 C31.2161423,38.8328586 24.7989635,28.5564598 16.8829723,28.5564598" id="Oval-1-Copy-16" fill="#9FAC9F" transform="translate(24.049557, 51.509439) rotate(-61.000000) translate(-24.049557, -51.509439) "></path>
                <path d="M32.9507853,45.6404407 L32.9507853,45.6404407 C40.8667765,45.6404407 47.2839553,35.3640419 47.2839553,22.6874615 C47.2839553,10.0108811 40.8667765,-0.265517733 32.9507853,-0.265517733" id="Oval-1-Copy-11" fill="#9FAC9F" transform="translate(40.117370, 22.687461) rotate(-37.000000) translate(-40.117370, -22.687461) "></path>
                <path d="M31.5925196,61.3450405 L31.5925196,61.3450405 C39.5085108,61.3450405 45.9256897,51.0686416 45.9256897,38.3920613 C45.9256897,25.7154809 39.5085108,15.439082 31.5925196,15.439082" id="Oval-1-Copy-12" fill="#9FAC9F" transform="translate(38.759105, 38.392061) rotate(-43.000000) translate(-38.759105, -38.392061) "></path>
                <path d="M17.7980355,63.0363023 L17.7980355,63.0363023 C25.7140268,63.0363023 32.1312056,52.7599035 32.1312056,40.0833231 C32.1312056,27.4067427 25.7140268,17.1303439 17.7980355,17.1303439" id="Oval-1-Copy-13" fill="#8C918C" transform="translate(24.964621, 40.083323) rotate(-61.000000) translate(-24.964621, -40.083323) "></path>
            </g>
            <g id="Group-Copy" transform="translate(73.000000, 48.500000) scale(-1, 1) translate(-73.000000, -48.500000) translate(37.000000, 14.000000)" sketch:type="MSShapeGroup">
                <path d="M17.7980355,57.0665565 L17.7980355,57.0665565 C25.7140268,57.0665565 32.1312056,46.7901577 32.1312056,34.1135773 C32.1312056,21.436997 25.7140268,11.1605981 17.7980355,11.1605981" id="Oval-1-Copy-5" fill="#8C918C" transform="translate(24.964621, 34.113577) rotate(-31.000000) translate(-24.964621, -34.113577) "></path>
                <path d="M16.8829723,74.4624182 L16.8829723,74.4624182 C24.7989635,74.4624182 31.2161423,64.1860193 31.2161423,51.509439 C31.2161423,38.8328586 24.7989635,28.5564598 16.8829723,28.5564598" id="Oval-1-Copy-6" stroke="#8C918C" fill="#9FAC9F" transform="translate(24.049557, 51.509439) rotate(-61.000000) translate(-24.049557, -51.509439) "></path>
                <path d="M44.3422452,67.6649768 L44.3422452,67.6649768 C52.2582364,67.6649768 58.6754152,57.388578 58.6754152,44.7119976 C58.6754152,32.0354172 52.2582364,21.7590184 44.3422452,21.7590184" id="Oval-1-Copy-10" fill="#8C918C" transform="translate(51.508830, 44.711998) rotate(-41.000000) translate(-51.508830, -44.711998) "></path>
                <path d="M16.8829723,74.4624182 L16.8829723,74.4624182 C24.7989635,74.4624182 31.2161423,64.1860193 31.2161423,51.509439 C31.2161423,38.8328586 24.7989635,28.5564598 16.8829723,28.5564598" id="Oval-1-Copy-14" fill="#9FAC9F" transform="translate(24.049557, 51.509439) rotate(-61.000000) translate(-24.049557, -51.509439) "></path>
                <path d="M16.8829723,74.4624182 L16.8829723,74.4624182 C24.7989635,74.4624182 31.2161423,64.1860193 31.2161423,51.509439 C31.2161423,38.8328586 24.7989635,28.5564598 16.8829723,28.5564598" id="Oval-1-Copy-15" fill="#9FAC9F" transform="translate(24.049557, 51.509439) rotate(-61.000000) translate(-24.049557, -51.509439) "></path>
                <path d="M16.8829723,74.4624182 L16.8829723,74.4624182 C24.7989635,74.4624182 31.2161423,64.1860193 31.2161423,51.509439 C31.2161423,38.8328586 24.7989635,28.5564598 16.8829723,28.5564598" id="Oval-1-Copy-16" fill="#9FAC9F" transform="translate(24.049557, 51.509439) rotate(-61.000000) translate(-24.049557, -51.509439) "></path>
                <path d="M32.9507853,45.6404407 L32.9507853,45.6404407 C40.8667765,45.6404407 47.2839553,35.3640419 47.2839553,22.6874615 C47.2839553,10.0108811 40.8667765,-0.265517733 32.9507853,-0.265517733" id="Oval-1-Copy-11" fill="#9FAC9F" transform="translate(40.117370, 22.687461) rotate(-37.000000) translate(-40.117370, -22.687461) "></path>
                <path d="M31.5925196,61.3450405 L31.5925196,61.3450405 C39.5085108,61.3450405 45.9256897,51.0686416 45.9256897,38.3920613 C45.9256897,25.7154809 39.5085108,15.439082 31.5925196,15.439082" id="Oval-1-Copy-12" fill="#9FAC9F" transform="translate(38.759105, 38.392061) rotate(-43.000000) translate(-38.759105, -38.392061) "></path>
                <path d="M17.7980355,63.0363023 L17.7980355,63.0363023 C25.7140268,63.0363023 32.1312056,52.7599035 32.1312056,40.0833231 C32.1312056,27.4067427 25.7140268,17.1303439 17.7980355,17.1303439" id="Oval-1-Copy-13" fill="#8C918C" transform="translate(24.964621, 40.083323) rotate(-61.000000) translate(-24.964621, -40.083323) "></path>
            </g>
            <rect id="Rectangle-2" fill="#F2EEC2" sketch:type="MSShapeGroup" x="7" y="71" width="97" height="130" rx="40"></rect>
            <path d="M45.936905,47.4357709 L45.936905,47.4357709 C53.8528962,47.4357709 60.270075,37.1593721 60.270075,24.4827917 C60.270075,11.8062114 53.8528962,1.52981252 45.936905,1.52981252" id="Oval-1-Copy-21" fill="#9FAC9F" sketch:type="MSShapeGroup" transform="translate(53.103490, 24.482792) scale(-1, 1) rotate(-28.000000) translate(-53.103490, -24.482792) "></path>
            <path d="M40.9785356,64.8316326 L40.9785356,64.8316326 C48.8945268,64.8316326 55.3117056,54.5552337 55.3117056,41.8786534 C55.3117056,29.202073 48.8945268,18.9256741 40.9785356,18.9256741" id="Oval-1-Copy-23" fill="#9FAC9F" sketch:type="MSShapeGroup" transform="translate(48.145121, 41.878653) rotate(-28.000000) translate(-48.145121, -41.878653) "></path>
            <path d="M103.248611,115.77 C82.2617901,115.77 65.2486106,95.7286544 65.2486106,71" id="Rectangle-1-Copy-7" stroke="#E4CFAE" stroke-width="3" sketch:type="MSShapeGroup"></path>
            <path d="M103.248611,136 C67.3501018,136 38.2486106,107.350321 38.2486106,72" id="Rectangle-1-Copy-8" stroke="#E4CFAE" stroke-width="3" sketch:type="MSShapeGroup"></path>
            <path d="M103.248611,158.384237 C58.5135458,158.384237 22.2486106,123.295437 22.2486106,80" id="Rectangle-1-Copy-10" stroke="#E4CFAE" stroke-width="3" sketch:type="MSShapeGroup"></path>
            <path d="M99,179.384237 C49.4316763,179.384237 9.24861058,144.295437 9.24861058,101" id="Rectangle-1-Copy-11" stroke="#E4CFAE" stroke-width="3" sketch:type="MSShapeGroup"></path>
            <path d="M99,179.384237 C49.4316763,179.384237 9.24861058,144.295437 9.24861058,101" id="Rectangle-1-Copy-12" stroke="#E4CFAE" stroke-width="3" sketch:type="MSShapeGroup"></path>
            <path d="M56.0177664,51.2137874 L56.0177664,51.2137874 C63.9337577,51.2137874 70.3509365,40.9373886 70.3509365,28.2608082 C70.3509365,15.5842279 63.9337577,5.30782902 56.0177664,5.30782902" id="Oval-1-Copy-20" fill="#8C918C" sketch:type="MSShapeGroup" transform="translate(63.184351, 28.260808) scale(-1, 1) rotate(-42.000000) translate(-63.184351, -28.260808) "></path>
            <path d="M34.5385817,50.6002101 L34.5385817,50.6002101 C42.454573,50.6002101 48.8717518,40.3238113 48.8717518,27.6472309 C48.8717518,14.9706505 42.454573,4.69425169 34.5385817,4.69425169" id="Oval-1-Copy-22" fill="#8C918C" sketch:type="MSShapeGroup" transform="translate(41.705167, 27.647231) rotate(-42.000000) translate(-41.705167, -27.647231) "></path>
            <path d="M103.248611,115.77 C82.2617901,115.77 65.2486106,95.7286544 65.2486106,71" id="Rectangle-1-Copy-9" stroke="#E4CFAE" stroke-width="3" sketch:type="MSShapeGroup"></path>
            <path d="M81.2486106,195 C41.4841086,195 9.24861058,169.036228 9.24861058,137" id="Rectangle-1-Copy-18" stroke="#E4CFAE" stroke-width="3" sketch:type="MSShapeGroup"></path>
            <path d="M102.248611,195 C60.8272543,195 27.2486106,169.036228 27.2486106,137" id="Rectangle-1-Copy-23" stroke="#E4CFAE" stroke-width="3" sketch:type="MSShapeGroup" transform="translate(64.748611, 166.000000) scale(-1, 1) translate(-64.748611, -166.000000) "></path>
            <path d="M103.248611,136 C67.3501018,136 38.2486106,107.350321 38.2486106,72" id="Rectangle-1-Copy-14" stroke="#E4CFAE" stroke-width="3" sketch:type="MSShapeGroup"></path>
            <path d="M72.2486106,136 C36.3501018,136 7.24861058,107.350321 7.24861058,72" id="Rectangle-1-Copy-20" stroke="#E4CFAE" stroke-width="3" sketch:type="MSShapeGroup" transform="translate(39.748611, 104.000000) scale(-1, 1) translate(-39.748611, -104.000000) "></path>
            <path d="M103.248611,158.384237 C58.5135458,158.384237 22.2486106,123.295437 22.2486106,80" id="Rectangle-1-Copy-15" stroke="#E4CFAE" stroke-width="3" sketch:type="MSShapeGroup"></path>
            <path d="M88.2486106,158.384237 C43.5135458,158.384237 7.24861058,123.295437 7.24861058,80" id="Rectangle-1-Copy-21" stroke="#E4CFAE" stroke-width="3" sketch:type="MSShapeGroup" transform="translate(47.748611, 119.192119) scale(-1, 1) translate(-47.748611, -119.192119) "></path>
            <path d="M100,175.384237 C50.4316763,175.384237 10.2486106,140.295437 10.2486106,97" id="Rectangle-1-Copy-22" stroke="#E4CFAE" stroke-width="3" sketch:type="MSShapeGroup" transform="translate(55.124305, 136.192119) scale(-1, 1) translate(-55.124305, -136.192119) "></path>
            <path d="M103.248611,115.77 C82.2617901,115.77 65.2486106,95.7286544 65.2486106,71" id="Rectangle-1-Copy-17" stroke="#E4CFAE" stroke-width="3" sketch:type="MSShapeGroup"></path>
            <path d="M45.2486106,115.77 C24.2617901,115.77 7.24861058,95.7286544 7.24861058,71" id="Rectangle-1-Copy-19" stroke="#E4CFAE" stroke-width="3" sketch:type="MSShapeGroup" transform="translate(26.248611, 93.385000) scale(-1, 1) translate(-26.248611, -93.385000) "></path>
        </g>
    </g>
</svg>