<?xml version="1.0" encoding="UTF-8" standalone="no"?>
<svg width="863px" height="539px" viewBox="0 0 863 539" version="1.1" xmlns="http://www.w3.org/2000/svg" xmlns:xlink="http://www.w3.org/1999/xlink" xmlns:sketch="http://www.bohemiancoding.com/sketch/ns">
    <!-- Generator: Sketch 3.3.1 (12005) - http://www.bohemiancoding.com/sketch -->
    <title>Slice 1</title>
    <desc>Created with Sketch.</desc>
    <defs></defs>
    <g id="Page-1" stroke="none" stroke-width="1" fill="none" fill-rule="evenodd" sketch:type="MSPage">
        <g id="Group-Copy-2" sketch:type="MSLayerGroup" transform="translate(109.000000, 470.500000) rotate(195.000000) translate(-109.000000, -470.500000) translate(34.000000, 433.000000)">
            <path d="M0,0 C0,41.4213562 33.5786438,75 75,75 L75,75 C116.421356,75 150,41.4213562 150,0" id="Oval-1" stroke="#9FAC9F" stroke-width="13" fill="#FFB7B7" sketch:type="MSShapeGroup"></path>
            <path d="M124.168281,14.6141803 C123.26815,11.0597012 122.100129,8.17822665 121.559431,8.17822665 C121.018734,8.17822665 119.850712,11.0597012 118.950582,14.6141803 C118.050452,18.1686593 119.218474,21.0501339 121.559431,21.0501339 C123.900389,21.0501339 125.068411,18.1686593 124.168281,14.6141803 Z" id="Oval-1-Copy-2" stroke="#919191" fill="#635B55" sketch:type="MSShapeGroup" transform="translate(121.559431, 14.614180) rotate(-30.000000) translate(-121.559431, -14.614180) "></path>
            <path d="M100.16041,17.5268017 C99.2602794,13.9723226 98.0922579,11.090848 97.5515603,11.090848 C97.0108628,11.090848 95.8428413,13.9723226 94.9427112,17.5268017 C94.0425811,21.0812807 95.2106026,23.9627553 97.5515603,23.9627553 C99.8925181,23.9627553 101.06054,21.0812807 100.16041,17.5268017 Z" id="Oval-1-Copy-3" stroke="#919191" fill="#635B55" sketch:type="MSShapeGroup" transform="translate(97.551560, 17.526802) rotate(-30.000000) translate(-97.551560, -17.526802) "></path>
            <path d="M75.4243831,22.7102299 C74.5242531,19.1557509 73.3562315,16.2742763 72.815534,16.2742763 C72.2748365,16.2742763 71.1068149,19.1557509 70.2066848,22.7102299 C69.3065547,26.264709 70.4745763,29.1461836 72.815534,29.1461836 C75.1564917,29.1461836 76.3245132,26.264709 75.4243831,22.7102299 Z" id="Oval-1-Copy-4" stroke="#919191" fill="#635B55" sketch:type="MSShapeGroup"></path>
            <path d="M52.8515676,17.5268017 C51.9514375,13.9723226 50.783416,11.090848 50.2427184,11.090848 C49.7020209,11.090848 48.5339994,13.9723226 47.6338693,17.5268017 C46.7337392,21.0812807 47.9017607,23.9627553 50.2427184,23.9627553 C52.5836762,23.9627553 53.7516977,21.0812807 52.8515676,17.5268017 Z" id="Oval-1-Copy-5" stroke="#919191" fill="#635B55" sketch:type="MSShapeGroup" transform="translate(50.242718, 17.526802) rotate(30.000000) translate(-50.242718, -17.526802) "></path>
            <path d="M31.0069074,14.7576814 C30.1067773,11.2032023 28.9387558,8.32172772 28.3980583,8.32172772 C27.8573607,8.32172772 26.6893392,11.2032023 25.7892091,14.7576814 C24.889079,18.3121604 26.0571005,21.193635 28.3980583,21.193635 C30.739016,21.193635 31.9070375,18.3121604 31.0069074,14.7576814 Z" id="Oval-1-Copy-6" stroke="#919191" fill="#635B55" sketch:type="MSShapeGroup" transform="translate(28.398058, 14.757681) rotate(30.000000) translate(-28.398058, -14.757681) "></path>
            <path d="M124.168281,35.7306852 C123.26815,32.1762061 122.100129,29.2947315 121.559431,29.2947315 C121.018734,29.2947315 119.850712,32.1762061 118.950582,35.7306852 C118.050452,39.2851642 119.218474,42.1666388 121.559431,42.1666388 C123.900389,42.1666388 125.068411,39.2851642 124.168281,35.7306852 Z" id="Oval-1-Copy-11" stroke="#919191" fill="#635B55" sketch:type="MSShapeGroup" transform="translate(121.559431, 35.730685) rotate(-30.000000) translate(-121.559431, -35.730685) "></path>
            <path d="M97.9759435,42.2840832 C97.0758134,38.7296042 95.9077918,35.8481296 95.3670943,35.8481296 C94.8263968,35.8481296 93.6583753,38.7296042 92.7582452,42.2840832 C91.8581151,45.8385623 93.0261366,48.7200369 95.3670943,48.7200369 C97.708052,48.7200369 98.8760736,45.8385623 97.9759435,42.2840832 Z" id="Oval-1-Copy-7" stroke="#919191" fill="#635B55" sketch:type="MSShapeGroup" transform="translate(95.367094, 42.284083) rotate(-30.000000) translate(-95.367094, -42.284083) "></path>
            <path d="M75.4243831,51.1082882 C74.5242531,47.5538091 73.3562315,44.6723345 72.815534,44.6723345 C72.2748365,44.6723345 71.1068149,47.5538091 70.2066848,51.1082882 C69.3065547,54.6627672 70.4745763,57.5442418 72.815534,57.5442418 C75.1564917,57.5442418 76.3245132,54.6627672 75.4243831,51.1082882 Z" id="Oval-1-Copy-8" stroke="#919191" fill="#635B55" sketch:type="MSShapeGroup"></path>
            <path d="M55.0360336,42.2840832 C54.1359035,38.7296042 52.967882,35.8481296 52.4271845,35.8481296 C51.886487,35.8481296 50.7184654,38.7296042 49.8183353,42.2840832 C48.9182052,45.8385623 50.0862268,48.7200369 52.4271845,48.7200369 C54.7681422,48.7200369 55.9361637,45.8385623 55.0360336,42.2840832 Z" id="Oval-1-Copy-9" stroke="#919191" fill="#635B55" sketch:type="MSShapeGroup" transform="translate(52.427184, 42.284083) rotate(30.000000) translate(-52.427184, -42.284083) "></path>
            <path d="M31.0069074,35.8741862 C30.1067773,32.3197072 28.9387558,29.4382326 28.3980583,29.4382326 C27.8573607,29.4382326 26.6893392,32.3197072 25.7892091,35.8741862 C24.889079,39.4286653 26.0571005,42.3101399 28.3980583,42.3101399 C30.739016,42.3101399 31.9070375,39.4286653 31.0069074,35.8741862 Z" id="Oval-1-Copy-10" stroke="#919191" fill="#635B55" sketch:type="MSShapeGroup" transform="translate(28.398058, 35.874186) rotate(30.000000) translate(-28.398058, -35.874186) "></path>
        </g>
        <g id="Group-Copy-4" sketch:type="MSLayerGroup" transform="translate(514.000000, 55.500000) scale(1, -1) rotate(165.000000) translate(-514.000000, -55.500000) translate(439.000000, 18.000000)">
            <path d="M0,0 C0,41.4213562 33.5786438,75 75,75 L75,75 C116.421356,75 150,41.4213562 150,0" id="Oval-1" stroke="#9FAC9F" stroke-width="13" fill="#FFB7B7" sketch:type="MSShapeGroup"></path>
            <path d="M124.168281,14.6141803 C123.26815,11.0597012 122.100129,8.17822665 121.559431,8.17822665 C121.018734,8.17822665 119.850712,11.0597012 118.950582,14.6141803 C118.050452,18.1686593 119.218474,21.0501339 121.559431,21.0501339 C123.900389,21.0501339 125.068411,18.1686593 124.168281,14.6141803 Z" id="Oval-1-Copy-2" stroke="#919191" fill="#635B55" sketch:type="MSShapeGroup" transform="translate(121.559431, 14.614180) rotate(-30.000000) translate(-121.559431, -14.614180) "></path>
            <path d="M100.16041,17.5268017 C99.2602794,13.9723226 98.0922579,11.090848 97.5515603,11.090848 C97.0108628,11.090848 95.8428413,13.9723226 94.9427112,17.5268017 C94.0425811,21.0812807 95.2106026,23.9627553 97.5515603,23.9627553 C99.8925181,23.9627553 101.06054,21.0812807 100.16041,17.5268017 Z" id="Oval-1-Copy-3" stroke="#919191" fill="#635B55" sketch:type="MSShapeGroup" transform="translate(97.551560, 17.526802) rotate(-30.000000) translate(-97.551560, -17.526802) "></path>
            <path d="M75.4243831,22.7102299 C74.5242531,19.1557509 73.3562315,16.2742763 72.815534,16.2742763 C72.2748365,16.2742763 71.1068149,19.1557509 70.2066848,22.7102299 C69.3065547,26.264709 70.4745763,29.1461836 72.815534,29.1461836 C75.1564917,29.1461836 76.3245132,26.264709 75.4243831,22.7102299 Z" id="Oval-1-Copy-4" stroke="#919191" fill="#635B55" sketch:type="MSShapeGroup"></path>
            <path d="M52.8515676,17.5268017 C51.9514375,13.9723226 50.783416,11.090848 50.2427184,11.090848 C49.7020209,11.090848 48.5339994,13.9723226 47.6338693,17.5268017 C46.7337392,21.0812807 47.9017607,23.9627553 50.2427184,23.9627553 C52.5836762,23.9627553 53.7516977,21.0812807 52.8515676,17.5268017 Z" id="Oval-1-Copy-5" stroke="#919191" fill="#635B55" sketch:type="MSShapeGroup" transform="translate(50.242718, 17.526802) rotate(30.000000) translate(-50.242718, -17.526802) "></path>
            <path d="M31.0069074,14.7576814 C30.1067773,11.2032023 28.9387558,8.32172772 28.3980583,8.32172772 C27.8573607,8.32172772 26.6893392,11.2032023 25.7892091,14.7576814 C24.889079,18.3121604 26.0571005,21.193635 28.3980583,21.193635 C30.739016,21.193635 31.9070375,18.3121604 31.0069074,14.7576814 Z" id="Oval-1-Copy-6" stroke="#919191" fill="#635B55" sketch:type="MSShapeGroup" transform="translate(28.398058, 14.757681) rotate(30.000000) translate(-28.398058, -14.757681) "></path>
            <path d="M124.168281,35.7306852 C123.26815,32.1762061 122.100129,29.2947315 121.559431,29.2947315 C121.018734,29.2947315 119.850712,32.1762061 118.950582,35.7306852 C118.050452,39.2851642 119.218474,42.1666388 121.559431,42.1666388 C123.900389,42.1666388 125.068411,39.2851642 124.168281,35.7306852 Z" id="Oval-1-Copy-11" stroke="#919191" fill="#635B55" sketch:type="MSShapeGroup" transform="translate(121.559431, 35.730685) rotate(-30.000000) translate(-121.559431, -35.730685) "></path>
            <path d="M97.9759435,42.2840832 C97.0758134,38.7296042 95.9077918,35.8481296 95.3670943,35.8481296 C94.8263968,35.8481296 93.6583753,38.7296042 92.7582452,42.2840832 C91.8581151,45.8385623 93.0261366,48.7200369 95.3670943,48.7200369 C97.708052,48.7200369 98.8760736,45.8385623 97.9759435,42.2840832 Z" id="Oval-1-Copy-7" stroke="#919191" fill="#635B55" sketch:type="MSShapeGroup" transform="translate(95.367094, 42.284083) rotate(-30.000000) translate(-95.367094, -42.284083) "></path>
            <path d="M75.4243831,51.1082882 C74.5242531,47.5538091 73.3562315,44.6723345 72.815534,44.6723345 C72.2748365,44.6723345 71.1068149,47.5538091 70.2066848,51.1082882 C69.3065547,54.6627672 70.4745763,57.5442418 72.815534,57.5442418 C75.1564917,57.5442418 76.3245132,54.6627672 75.4243831,51.1082882 Z" id="Oval-1-Copy-8" stroke="#919191" fill="#635B55" sketch:type="MSShapeGroup"></path>
            <path d="M55.0360336,42.2840832 C54.1359035,38.7296042 52.967882,35.8481296 52.4271845,35.8481296 C51.886487,35.8481296 50.7184654,38.7296042 49.8183353,42.2840832 C48.9182052,45.8385623 50.0862268,48.7200369 52.4271845,48.7200369 C54.7681422,48.7200369 55.9361637,45.8385623 55.0360336,42.2840832 Z" id="Oval-1-Copy-9" stroke="#919191" fill="#635B55" sketch:type="MSShapeGroup" transform="translate(52.427184, 42.284083) rotate(30.000000) translate(-52.427184, -42.284083) "></path>
            <path d="M31.0069074,35.8741862 C30.1067773,32.3197072 28.9387558,29.4382326 28.3980583,29.4382326 C27.8573607,29.4382326 26.6893392,32.3197072 25.7892091,35.8741862 C24.889079,39.4286653 26.0571005,42.3101399 28.3980583,42.3101399 C30.739016,42.3101399 31.9070375,39.4286653 31.0069074,35.8741862 Z" id="Oval-1-Copy-10" stroke="#919191" fill="#635B55" sketch:type="MSShapeGroup" transform="translate(28.398058, 35.874186) rotate(30.000000) translate(-28.398058, -35.874186) "></path>
        </g>
        <g id="Group-Copy-5" sketch:type="MSLayerGroup" transform="translate(752.000000, 252.500000) scale(-1, -1) rotate(165.000000) translate(-752.000000, -252.500000) translate(677.000000, 215.000000)">
            <path d="M0,0 C0,41.4213562 33.5786438,75 75,75 L75,75 C116.421356,75 150,41.4213562 150,0" id="Oval-1" stroke="#9FAC9F" stroke-width="13" fill="#FFB7B7" sketch:type="MSShapeGroup"></path>
            <path d="M124.168281,14.6141803 C123.26815,11.0597012 122.100129,8.17822665 121.559431,8.17822665 C121.018734,8.17822665 119.850712,11.0597012 118.950582,14.6141803 C118.050452,18.1686593 119.218474,21.0501339 121.559431,21.0501339 C123.900389,21.0501339 125.068411,18.1686593 124.168281,14.6141803 Z" id="Oval-1-Copy-2" stroke="#919191" fill="#635B55" sketch:type="MSShapeGroup" transform="translate(121.559431, 14.614180) rotate(-30.000000) translate(-121.559431, -14.614180) "></path>
            <path d="M100.16041,17.5268017 C99.2602794,13.9723226 98.0922579,11.090848 97.5515603,11.090848 C97.0108628,11.090848 95.8428413,13.9723226 94.9427112,17.5268017 C94.0425811,21.0812807 95.2106026,23.9627553 97.5515603,23.9627553 C99.8925181,23.9627553 101.06054,21.0812807 100.16041,17.5268017 Z" id="Oval-1-Copy-3" stroke="#919191" fill="#635B55" sketch:type="MSShapeGroup" transform="translate(97.551560, 17.526802) rotate(-30.000000) translate(-97.551560, -17.526802) "></path>
            <path d="M75.4243831,22.7102299 C74.5242531,19.1557509 73.3562315,16.2742763 72.815534,16.2742763 C72.2748365,16.2742763 71.1068149,19.1557509 70.2066848,22.7102299 C69.3065547,26.264709 70.4745763,29.1461836 72.815534,29.1461836 C75.1564917,29.1461836 76.3245132,26.264709 75.4243831,22.7102299 Z" id="Oval-1-Copy-4" stroke="#919191" fill="#635B55" sketch:type="MSShapeGroup"></path>
            <path d="M52.8515676,17.5268017 C51.9514375,13.9723226 50.783416,11.090848 50.2427184,11.090848 C49.7020209,11.090848 48.5339994,13.9723226 47.6338693,17.5268017 C46.7337392,21.0812807 47.9017607,23.9627553 50.2427184,23.9627553 C52.5836762,23.9627553 53.7516977,21.0812807 52.8515676,17.5268017 Z" id="Oval-1-Copy-5" stroke="#919191" fill="#635B55" sketch:type="MSShapeGroup" transform="translate(50.242718, 17.526802) rotate(30.000000) translate(-50.242718, -17.526802) "></path>
            <path d="M31.0069074,14.7576814 C30.1067773,11.2032023 28.9387558,8.32172772 28.3980583,8.32172772 C27.8573607,8.32172772 26.6893392,11.2032023 25.7892091,14.7576814 C24.889079,18.3121604 26.0571005,21.193635 28.3980583,21.193635 C30.739016,21.193635 31.9070375,18.3121604 31.0069074,14.7576814 Z" id="Oval-1-Copy-6" stroke="#919191" fill="#635B55" sketch:type="MSShapeGroup" transform="translate(28.398058, 14.757681) rotate(30.000000) translate(-28.398058, -14.757681) "></path>
            <path d="M124.168281,35.7306852 C123.26815,32.1762061 122.100129,29.2947315 121.559431,29.2947315 C121.018734,29.2947315 119.850712,32.1762061 118.950582,35.7306852 C118.050452,39.2851642 119.218474,42.1666388 121.559431,42.1666388 C123.900389,42.1666388 125.068411,39.2851642 124.168281,35.7306852 Z" id="Oval-1-Copy-11" stroke="#919191" fill="#635B55" sketch:type="MSShapeGroup" transform="translate(121.559431, 35.730685) rotate(-30.000000) translate(-121.559431, -35.730685) "></path>
            <path d="M97.9759435,42.2840832 C97.0758134,38.7296042 95.9077918,35.8481296 95.3670943,35.8481296 C94.8263968,35.8481296 93.6583753,38.7296042 92.7582452,42.2840832 C91.8581151,45.8385623 93.0261366,48.7200369 95.3670943,48.7200369 C97.708052,48.7200369 98.8760736,45.8385623 97.9759435,42.2840832 Z" id="Oval-1-Copy-7" stroke="#919191" fill="#635B55" sketch:type="MSShapeGroup" transform="translate(95.367094, 42.284083) rotate(-30.000000) translate(-95.367094, -42.284083) "></path>
            <path d="M75.4243831,51.1082882 C74.5242531,47.5538091 73.3562315,44.6723345 72.815534,44.6723345 C72.2748365,44.6723345 71.1068149,47.5538091 70.2066848,51.1082882 C69.3065547,54.6627672 70.4745763,57.5442418 72.815534,57.5442418 C75.1564917,57.5442418 76.3245132,54.6627672 75.4243831,51.1082882 Z" id="Oval-1-Copy-8" stroke="#919191" fill="#635B55" sketch:type="MSShapeGroup"></path>
            <path d="M55.0360336,42.2840832 C54.1359035,38.7296042 52.967882,35.8481296 52.4271845,35.8481296 C51.886487,35.8481296 50.7184654,38.7296042 49.8183353,42.2840832 C48.9182052,45.8385623 50.0862268,48.7200369 52.4271845,48.7200369 C54.7681422,48.7200369 55.9361637,45.8385623 55.0360336,42.2840832 Z" id="Oval-1-Copy-9" stroke="#919191" fill="#635B55" sketch:type="MSShapeGroup" transform="translate(52.427184, 42.284083) rotate(30.000000) translate(-52.427184, -42.284083) "></path>
            <path d="M31.0069074,35.8741862 C30.1067773,32.3197072 28.9387558,29.4382326 28.3980583,29.4382326 C27.8573607,29.4382326 26.6893392,32.3197072 25.7892091,35.8741862 C24.889079,39.4286653 26.0571005,42.3101399 28.3980583,42.3101399 C30.739016,42.3101399 31.9070375,39.4286653 31.0069074,35.8741862 Z" id="Oval-1-Copy-10" stroke="#919191" fill="#635B55" sketch:type="MSShapeGroup" transform="translate(28.398058, 35.874186) rotate(30.000000) translate(-28.398058, -35.874186) "></path>
        </g>
        <g id="Group-Copy-3" sketch:type="MSLayerGroup" transform="translate(107.448246, 89.500000) rotate(-30.000000) translate(-107.448246, -89.500000) translate(32.448246, 52.000000)">
            <path d="M0.72815534,3.33955086e-13 C0.72815534,41.2202817 34.143796,74.6359223 75.3640777,74.6359223 L75.3640777,74.6359223 C116.584359,74.6359223 150,41.2202817 150,3.33955086e-13" id="Oval-1" stroke="#9FAC9F" stroke-width="13" fill="#FFB7B7" sketch:type="MSShapeGroup"></path>
            <path d="M123.945854,13.3097557 C121.401491,10.6815516 118.961121,8.77013219 118.495137,9.04048094 C118.029152,9.3108297 118.45627,12.3902707 119.44913,15.9186049 C120.441991,19.4469391 122.882361,21.3583585 124.899848,20.1878797 C126.917335,19.0174008 126.490218,15.9379598 123.945854,13.3097557 L123.945854,13.3097557 Z" id="Oval-1-Copy-2" stroke="#919191" fill="#635B55" sketch:type="MSShapeGroup"></path>
            <path d="M100.539045,16.2223771 C97.9822703,13.594173 95.5299966,11.6827535 95.0617389,11.9531023 C94.5934811,12.2234511 95.022682,15.302892 96.020386,18.8312262 C97.01809,22.3595604 99.4703637,24.2709799 101.497693,23.100501 C103.525021,21.9300222 103.09582,18.8505812 100.539045,16.2223771 L100.539045,16.2223771 Z" id="Oval-1-Copy-3" stroke="#919191" fill="#635B55" sketch:type="MSShapeGroup"></path>
            <path d="M76.1525385,22.7102299 C75.2524084,19.1557509 74.0843868,16.2742763 73.5436893,16.2742763 C73.0029918,16.2742763 71.8349702,19.1557509 70.9348402,22.7102299 C70.0347101,26.264709 71.2027316,29.1461836 73.5436893,29.1461836 C75.884647,29.1461836 77.0526686,26.264709 76.1525385,22.7102299 Z" id="Oval-1-Copy-4" stroke="#919191" fill="#635B55" sketch:type="MSShapeGroup"></path>
            <path d="M53.2302034,18.8312262 C54.2279074,15.302892 54.6571084,12.2234511 54.1888506,11.9531023 C53.7205928,11.6827535 51.2683192,13.594173 48.7115441,16.2223771 C46.1547691,18.8505812 45.7255681,21.9300222 47.752897,23.100501 C49.7802258,24.2709799 52.2324994,22.3595604 53.2302034,18.8312262 L53.2302034,18.8312262 Z" id="Oval-1-Copy-5" stroke="#919191" fill="#635B55" sketch:type="MSShapeGroup"></path>
            <path d="M31.3855432,16.062106 C32.3832472,12.5337717 32.8124482,9.45433077 32.3441904,9.18398201 C31.8759326,8.91363325 29.423659,10.8250527 26.8668839,13.4532568 C24.3101089,16.0814609 23.8809079,19.1609019 25.9082368,20.3313807 C27.9355656,21.5018596 30.3878392,19.5904402 31.3855432,16.062106 L31.3855432,16.062106 Z" id="Oval-1-Copy-6" stroke="#919191" fill="#635B55" sketch:type="MSShapeGroup"></path>
            <path d="M124.546916,34.4262606 C121.990141,31.7980565 119.537868,29.886637 119.06961,30.1569858 C118.601352,30.4273346 119.030553,33.5067755 120.028257,37.0351097 C121.025961,40.5634439 123.478235,42.4748634 125.505564,41.3043845 C127.532892,40.1339057 127.103691,37.0544647 124.546916,34.4262606 L124.546916,34.4262606 Z" id="Oval-1-Copy-11" stroke="#919191" fill="#635B55" sketch:type="MSShapeGroup"></path>
            <path d="M98.3545793,40.9796586 C95.7978043,38.3514545 93.3455306,36.4400351 92.8772728,36.7103839 C92.4090151,36.9807326 92.838216,40.0601736 93.83592,43.5885078 C94.833624,47.116842 97.2858977,49.0282614 99.3132265,47.8577826 C101.340555,46.6873037 100.911354,43.6078627 98.3545793,40.9796586 L98.3545793,40.9796586 Z" id="Oval-1-Copy-7" stroke="#919191" fill="#635B55" sketch:type="MSShapeGroup"></path>
            <path d="M76.1525385,51.1082882 C75.2524084,47.5538091 74.0843868,44.6723345 73.5436893,44.6723345 C73.0029918,44.6723345 71.8349702,47.5538091 70.9348402,51.1082882 C70.0347101,54.6627672 71.2027316,57.5442418 73.5436893,57.5442418 C75.884647,57.5442418 77.0526686,54.6627672 76.1525385,51.1082882 Z" id="Oval-1-Copy-8" stroke="#919191" fill="#635B55" sketch:type="MSShapeGroup"></path>
            <path d="M55.4146695,43.5885078 C56.4123735,40.0601736 56.8415744,36.9807326 56.3733166,36.7103839 C55.9050588,36.4400351 53.4527852,38.3514545 50.8960102,40.9796586 C48.3392351,43.6078627 47.9100341,46.6873037 49.937363,47.8577826 C51.9646918,49.0282614 54.4169655,47.116842 55.4146695,43.5885078 L55.4146695,43.5885078 Z" id="Oval-1-Copy-9" stroke="#919191" fill="#635B55" sketch:type="MSShapeGroup"></path>
            <path d="M31.3855432,37.1786108 C32.3832472,33.6502766 32.8124482,30.5708356 32.3441904,30.3004869 C31.8759326,30.0301381 29.423659,31.9415575 26.8668839,34.5697616 C24.3101089,37.1979657 23.8809079,40.2774067 25.9082368,41.4478856 C27.9355656,42.6183644 30.3878392,40.706945 31.3855432,37.1786108 L31.3855432,37.1786108 Z" id="Oval-1-Copy-10" stroke="#919191" fill="#635B55" sketch:type="MSShapeGroup"></path>
        </g>
        <g id="Group-Copy-6" sketch:type="MSLayerGroup" transform="translate(531.664563, 453.898915) scale(-1, 1) rotate(212.000000) translate(-531.664563, -453.898915) translate(456.164563, 415.898915)">
            <path d="M0,1 C0,42.4213562 33.5786438,76 75,76 L75,76 C116.421356,76 150,42.4213562 150,1" id="Oval-1" stroke="#9FAC9F" stroke-width="13" fill="#FFB7B7" sketch:type="MSShapeGroup"></path>
            <path d="M124.168281,15.6141803 C123.26815,12.0597012 122.100129,9.17822665 121.559431,9.17822665 C121.018734,9.17822665 119.850712,12.0597012 118.950582,15.6141803 C118.050452,19.1686593 119.218474,22.0501339 121.559431,22.0501339 C123.900389,22.0501339 125.068411,19.1686593 124.168281,15.6141803 Z" id="Oval-1-Copy-2" stroke="#919191" fill="#635B55" sketch:type="MSShapeGroup" transform="translate(121.559431, 15.614180) rotate(-30.000000) translate(-121.559431, -15.614180) "></path>
            <path d="M100.16041,18.5268017 C99.2602794,14.9723226 98.0922579,12.090848 97.5515603,12.090848 C97.0108628,12.090848 95.8428413,14.9723226 94.9427112,18.5268017 C94.0425811,22.0812807 95.2106026,24.9627553 97.5515603,24.9627553 C99.8925181,24.9627553 101.06054,22.0812807 100.16041,18.5268017 Z" id="Oval-1-Copy-3" stroke="#919191" fill="#635B55" sketch:type="MSShapeGroup" transform="translate(97.551560, 18.526802) rotate(-30.000000) translate(-97.551560, -18.526802) "></path>
            <path d="M75.4243831,23.7102299 C74.5242531,20.1557509 73.3562315,17.2742763 72.815534,17.2742763 C72.2748365,17.2742763 71.1068149,20.1557509 70.2066848,23.7102299 C69.3065547,27.264709 70.4745763,30.1461836 72.815534,30.1461836 C75.1564917,30.1461836 76.3245132,27.264709 75.4243831,23.7102299 Z" id="Oval-1-Copy-4" stroke="#919191" fill="#635B55" sketch:type="MSShapeGroup"></path>
            <path d="M52.8515676,18.5268017 C51.9514375,14.9723226 50.783416,12.090848 50.2427184,12.090848 C49.7020209,12.090848 48.5339994,14.9723226 47.6338693,18.5268017 C46.7337392,22.0812807 47.9017607,24.9627553 50.2427184,24.9627553 C52.5836762,24.9627553 53.7516977,22.0812807 52.8515676,18.5268017 Z" id="Oval-1-Copy-5" stroke="#919191" fill="#635B55" sketch:type="MSShapeGroup" transform="translate(50.242718, 18.526802) rotate(30.000000) translate(-50.242718, -18.526802) "></path>
            <path d="M31.0069074,15.7576814 C30.1067773,12.2032023 28.9387558,9.32172772 28.3980583,9.32172772 C27.8573607,9.32172772 26.6893392,12.2032023 25.7892091,15.7576814 C24.889079,19.3121604 26.0571005,22.193635 28.3980583,22.193635 C30.739016,22.193635 31.9070375,19.3121604 31.0069074,15.7576814 Z" id="Oval-1-Copy-6" stroke="#919191" fill="#635B55" sketch:type="MSShapeGroup" transform="translate(28.398058, 15.757681) rotate(30.000000) translate(-28.398058, -15.757681) "></path>
            <path d="M124.168281,36.7306852 C123.26815,33.1762061 122.100129,30.2947315 121.559431,30.2947315 C121.018734,30.2947315 119.850712,33.1762061 118.950582,36.7306852 C118.050452,40.2851642 119.218474,43.1666388 121.559431,43.1666388 C123.900389,43.1666388 125.068411,40.2851642 124.168281,36.7306852 Z" id="Oval-1-Copy-11" stroke="#919191" fill="#635B55" sketch:type="MSShapeGroup" transform="translate(121.559431, 36.730685) rotate(-30.000000) translate(-121.559431, -36.730685) "></path>
            <path d="M97.9759435,43.2840832 C97.0758134,39.7296042 95.9077918,36.8481296 95.3670943,36.8481296 C94.8263968,36.8481296 93.6583753,39.7296042 92.7582452,43.2840832 C91.8581151,46.8385623 93.0261366,49.7200369 95.3670943,49.7200369 C97.708052,49.7200369 98.8760736,46.8385623 97.9759435,43.2840832 Z" id="Oval-1-Copy-7" stroke="#919191" fill="#635B55" sketch:type="MSShapeGroup" transform="translate(95.367094, 43.284083) rotate(-30.000000) translate(-95.367094, -43.284083) "></path>
            <path d="M75.4243831,52.1082882 C74.5242531,48.5538091 73.3562315,45.6723345 72.815534,45.6723345 C72.2748365,45.6723345 71.1068149,48.5538091 70.2066848,52.1082882 C69.3065547,55.6627672 70.4745763,58.5442418 72.815534,58.5442418 C75.1564917,58.5442418 76.3245132,55.6627672 75.4243831,52.1082882 Z" id="Oval-1-Copy-8" stroke="#919191" fill="#635B55" sketch:type="MSShapeGroup"></path>
            <path d="M55.0360336,43.2840832 C54.1359035,39.7296042 52.967882,36.8481296 52.4271845,36.8481296 C51.886487,36.8481296 50.7184654,39.7296042 49.8183353,43.2840832 C48.9182052,46.8385623 50.0862268,49.7200369 52.4271845,49.7200369 C54.7681422,49.7200369 55.9361637,46.8385623 55.0360336,43.2840832 Z" id="Oval-1-Copy-9" stroke="#919191" fill="#635B55" sketch:type="MSShapeGroup" transform="translate(52.427184, 43.284083) rotate(30.000000) translate(-52.427184, -43.284083) "></path>
            <path d="M31.0069074,36.8741862 C30.1067773,33.3197072 28.9387558,30.4382326 28.3980583,30.4382326 C27.8573607,30.4382326 26.6893392,33.3197072 25.7892091,36.8741862 C24.889079,40.4286653 26.0571005,43.3101399 28.3980583,43.3101399 C30.739016,43.3101399 31.9070375,40.4286653 31.0069074,36.8741862 Z" id="Oval-1-Copy-10" stroke="#919191" fill="#635B55" sketch:type="MSShapeGroup" transform="translate(28.398058, 36.874186) rotate(30.000000) translate(-28.398058, -36.874186) "></path>
        </g>
        <g id="Group-Copy-7" sketch:type="MSLayerGroup" transform="translate(311.000000, 269.500000) rotate(213.000000) translate(-311.000000, -269.500000) translate(236.000000, 232.000000)">
            <path d="M0,0 C0,41.4213562 33.5786438,75 75,75 L75,75 C116.421356,75 150,41.4213562 150,0" id="Oval-1" stroke="#9FAC9F" stroke-width="13" fill="#FFB7B7" sketch:type="MSShapeGroup"></path>
            <path d="M124.168281,14.6141803 C123.26815,11.0597012 122.100129,8.17822665 121.559431,8.17822665 C121.018734,8.17822665 119.850712,11.0597012 118.950582,14.6141803 C118.050452,18.1686593 119.218474,21.0501339 121.559431,21.0501339 C123.900389,21.0501339 125.068411,18.1686593 124.168281,14.6141803 Z" id="Oval-1-Copy-2" stroke="#919191" fill="#635B55" sketch:type="MSShapeGroup" transform="translate(121.559431, 14.614180) rotate(-30.000000) translate(-121.559431, -14.614180) "></path>
            <path d="M100.16041,17.5268017 C99.2602794,13.9723226 98.0922579,11.090848 97.5515603,11.090848 C97.0108628,11.090848 95.8428413,13.9723226 94.9427112,17.5268017 C94.0425811,21.0812807 95.2106026,23.9627553 97.5515603,23.9627553 C99.8925181,23.9627553 101.06054,21.0812807 100.16041,17.5268017 Z" id="Oval-1-Copy-3" stroke="#919191" fill="#635B55" sketch:type="MSShapeGroup" transform="translate(97.551560, 17.526802) rotate(-30.000000) translate(-97.551560, -17.526802) "></path>
            <path d="M75.4243831,22.7102299 C74.5242531,19.1557509 73.3562315,16.2742763 72.815534,16.2742763 C72.2748365,16.2742763 71.1068149,19.1557509 70.2066848,22.7102299 C69.3065547,26.264709 70.4745763,29.1461836 72.815534,29.1461836 C75.1564917,29.1461836 76.3245132,26.264709 75.4243831,22.7102299 Z" id="Oval-1-Copy-4" stroke="#919191" fill="#635B55" sketch:type="MSShapeGroup"></path>
            <path d="M52.8515676,17.5268017 C51.9514375,13.9723226 50.783416,11.090848 50.2427184,11.090848 C49.7020209,11.090848 48.5339994,13.9723226 47.6338693,17.5268017 C46.7337392,21.0812807 47.9017607,23.9627553 50.2427184,23.9627553 C52.5836762,23.9627553 53.7516977,21.0812807 52.8515676,17.5268017 Z" id="Oval-1-Copy-5" stroke="#919191" fill="#635B55" sketch:type="MSShapeGroup" transform="translate(50.242718, 17.526802) rotate(30.000000) translate(-50.242718, -17.526802) "></path>
            <path d="M31.0069074,14.7576814 C30.1067773,11.2032023 28.9387558,8.32172772 28.3980583,8.32172772 C27.8573607,8.32172772 26.6893392,11.2032023 25.7892091,14.7576814 C24.889079,18.3121604 26.0571005,21.193635 28.3980583,21.193635 C30.739016,21.193635 31.9070375,18.3121604 31.0069074,14.7576814 Z" id="Oval-1-Copy-6" stroke="#919191" fill="#635B55" sketch:type="MSShapeGroup" transform="translate(28.398058, 14.757681) rotate(30.000000) translate(-28.398058, -14.757681) "></path>
            <path d="M124.168281,35.7306852 C123.26815,32.1762061 122.100129,29.2947315 121.559431,29.2947315 C121.018734,29.2947315 119.850712,32.1762061 118.950582,35.7306852 C118.050452,39.2851642 119.218474,42.1666388 121.559431,42.1666388 C123.900389,42.1666388 125.068411,39.2851642 124.168281,35.7306852 Z" id="Oval-1-Copy-11" stroke="#919191" fill="#635B55" sketch:type="MSShapeGroup" transform="translate(121.559431, 35.730685) rotate(-30.000000) translate(-121.559431, -35.730685) "></path>
            <path d="M97.9759435,42.2840832 C97.0758134,38.7296042 95.9077918,35.8481296 95.3670943,35.8481296 C94.8263968,35.8481296 93.6583753,38.7296042 92.7582452,42.2840832 C91.8581151,45.8385623 93.0261366,48.7200369 95.3670943,48.7200369 C97.708052,48.7200369 98.8760736,45.8385623 97.9759435,42.2840832 Z" id="Oval-1-Copy-7" stroke="#919191" fill="#635B55" sketch:type="MSShapeGroup" transform="translate(95.367094, 42.284083) rotate(-30.000000) translate(-95.367094, -42.284083) "></path>
            <path d="M75.4243831,51.1082882 C74.5242531,47.5538091 73.3562315,44.6723345 72.815534,44.6723345 C72.2748365,44.6723345 71.1068149,47.5538091 70.2066848,51.1082882 C69.3065547,54.6627672 70.4745763,57.5442418 72.815534,57.5442418 C75.1564917,57.5442418 76.3245132,54.6627672 75.4243831,51.1082882 Z" id="Oval-1-Copy-8" stroke="#919191" fill="#635B55" sketch:type="MSShapeGroup"></path>
            <path d="M55.0360336,42.2840832 C54.1359035,38.7296042 52.967882,35.8481296 52.4271845,35.8481296 C51.886487,35.8481296 50.7184654,38.7296042 49.8183353,42.2840832 C48.9182052,45.8385623 50.0862268,48.7200369 52.4271845,48.7200369 C54.7681422,48.7200369 55.9361637,45.8385623 55.0360336,42.2840832 Z" id="Oval-1-Copy-9" stroke="#919191" fill="#635B55" sketch:type="MSShapeGroup" transform="translate(52.427184, 42.284083) rotate(30.000000) translate(-52.427184, -42.284083) "></path>
            <path d="M31.0069074,35.8741862 C30.1067773,32.3197072 28.9387558,29.4382326 28.3980583,29.4382326 C27.8573607,29.4382326 26.6893392,32.3197072 25.7892091,35.8741862 C24.889079,39.4286653 26.0571005,42.3101399 28.3980583,42.3101399 C30.739016,42.3101399 31.9070375,39.4286653 31.0069074,35.8741862 Z" id="Oval-1-Copy-10" stroke="#919191" fill="#635B55" sketch:type="MSShapeGroup" transform="translate(28.398058, 35.874186) rotate(30.000000) translate(-28.398058, -35.874186) "></path>
        </g>
    </g>
</svg>